<svg width="76" height="11" viewBox="0 0 76 11" fill="none" xmlns="http://www.w3.org/2000/svg">
<path d="M0 6.06991C0 2.82847 2.29664 0 6.05505 0C7.59109 0 8.80924 0.472401 9.48367 1.31916L9.13903 1.61924C8.47945 0.843789 7.43065 0.442696 6.02534 0.442696C2.62346 0.442696 0.48726 3.00971 0.48726 6.05208C0.48726 8.23285 1.89257 9.71244 4.60516 9.71244C6.04019 9.71244 7.18703 9.26678 8.03379 8.47945L8.32198 8.83894C7.46037 9.65599 6.09665 10.1581 4.56357 10.1581C1.62221 10.1581 0 8.50916 0 6.06991Z" fill="white"/>
<path d="M10.0142 6.06996C10.0142 2.82851 12.3108 4.59738e-05 16.0128 4.59738e-05C18.9542 4.59738e-05 20.5615 1.64899 20.5615 4.08825C20.5615 7.32969 18.2797 10.1581 14.5778 10.1581C11.6364 10.1581 10.0142 8.50921 10.0142 6.06996ZM20.0713 4.10607C20.0713 1.94016 18.6808 0.448681 15.9682 0.448681C12.6406 0.448681 10.5015 3.01569 10.5015 6.05807C10.5015 8.22398 11.9068 9.71843 14.6194 9.71843C17.9351 9.71843 20.0713 7.14845 20.0713 4.10905V4.10607Z" fill="white"/>
<path d="M34.1646 0.0592756L32.1561 10.1045H31.6837L33.4782 1.10806L27.6371 8.71401H27.3935L24.4224 1.01002L22.6011 10.1074H22.1287L24.1372 0.0622496H24.5383L27.6074 8.06929L33.7337 0.0622496H34.1646V0.0592756Z" fill="white"/>
<path d="M44.6943 2.77187C44.6943 5.35373 42.9443 6.7323 40.1158 6.7323H37.0022L36.3277 10.1045H35.8405L37.8489 0.0592756H41.2775C43.4434 0.0592756 44.6913 1.03379 44.6913 2.77187H44.6943ZM44.2219 2.79861C44.2219 1.32198 43.1612 0.501963 41.2805 0.501963H38.253L37.0913 6.28368H40.1188C42.7155 6.28368 44.2219 5.10713 44.2219 2.79563V2.79861Z" fill="white"/>
<path d="M52.1979 7.16311H46.1577L44.2206 10.1045H43.6739L50.3321 0.0592756H50.8045L53.4458 10.1045H52.9585L52.1979 7.16311ZM52.082 6.74419L50.4895 0.588126L46.4281 6.74419H52.082Z" fill="white"/>
<path d="M65.4257 0.0592756L63.4173 10.1045H63.0162L57.7217 0.849582L55.8856 10.1045H55.3983L57.4068 0.0592756H57.8079L63.1023 9.31417L64.9384 0.0592756H65.4257Z" fill="white"/>
<path d="M70.6046 6.7029L69.9153 10.1048H69.4281L70.1173 6.66131L67.378 0.062555H67.8801L70.4352 6.23347L75.4415 0.062555H76.0001L70.6046 6.70587V6.7029Z" fill="white"/>
</svg>
