<svg width="2005" height="430" viewBox="0 0 2005 430" fill="none" xmlns="http://www.w3.org/2000/svg">
<path d="M131.145 407.284L112.803 402.682L167.498 326.416C173.259 318.421 180.593 316.649 190.608 319.165C200.624 321.682 206.12 326.665 207.278 336.398L218.204 429.135L199.713 424.5L190.012 340.62C189.731 338.153 188.423 336.779 186.172 336.2C183.92 335.62 182.116 336.233 180.56 338.236L131.129 407.267L131.145 407.284Z" fill="white"/>
<path d="M39.2028 330.075L26.2573 316.285L113.498 281.703C122.669 278.078 129.788 280.578 136.856 288.11C143.925 295.642 145.862 302.81 141.558 311.617L100.603 395.53L87.5578 381.641L124.755 305.84C125.848 303.605 125.5 301.751 123.911 300.046C122.322 298.34 120.484 297.877 118.084 298.721L39.1862 330.075H39.2028Z" fill="white"/>
<path d="M3.5952 215.403L0.168457 196.812L92.2598 214.873C101.927 216.794 106.579 222.736 108.45 232.884C110.321 243.032 108.086 250.117 99.6926 255.216L19.8846 303.67L16.4248 284.931L88.6841 241.277C90.8196 240.003 91.5314 238.231 91.101 235.947C90.6706 233.662 89.3794 232.272 86.9128 231.692L3.57863 215.419L3.5952 215.403Z" fill="white"/>
<path d="M35.626 99.6902L42.794 82.1924L110.501 147.184C117.603 154.021 118.298 161.537 114.391 171.089C110.484 180.641 104.757 185.375 94.9564 185.143L1.62354 182.759L8.84117 165.129L93.2348 167.463C95.718 167.546 97.274 166.437 98.1514 164.285C99.0288 162.133 98.6977 160.262 96.9264 158.441L35.626 99.6902Z" fill="white"/>
<path d="M125.154 19.6682L140.649 8.8252L162.467 100.089C164.751 109.69 161.258 116.378 152.799 122.305C144.34 128.231 136.973 129.125 128.862 123.612L51.6362 71.1354L67.2469 60.2096L136.973 107.803C139.026 109.21 140.913 109.127 142.817 107.803C144.721 106.479 145.449 104.724 144.953 102.224L125.154 19.6682Z" fill="white"/>
<path d="M243.714 0.744962L262.602 0L231.613 88.5819C228.335 97.8853 221.796 101.643 211.466 102.04C201.136 102.438 194.465 99.2263 190.608 90.2042L154.006 4.30417L173.044 3.54264L205.97 81.2815C206.93 83.566 208.569 84.526 210.903 84.4267C213.237 84.3274 214.794 83.2514 215.721 80.8842L243.697 0.728391L243.714 0.744962Z" fill="white"/>
<path d="M353.702 48.9179L370.008 58.5028L296.044 116.261C288.263 122.319 280.731 121.939 271.825 116.707C262.919 111.476 259.045 105.153 260.684 95.4684L276.328 3.41016L292.749 13.0613L278.414 96.263C277.983 98.713 278.844 100.402 280.864 101.577C282.883 102.752 284.77 102.686 286.823 101.196L353.702 48.8847V48.9179Z" fill="white"/>
<path d="M420.165 148.923L428.691 165.792L335.242 174.4C325.425 175.294 319.284 170.891 314.632 161.67C309.98 152.45 310.129 145.033 316.734 137.782L379.657 68.8008L388.249 85.802L331.203 148.046C329.514 149.884 329.332 151.754 330.375 153.84C331.418 155.926 333.057 156.886 335.59 156.737L420.132 148.89L420.165 148.923Z" fill="white"/>
<path d="M422.023 268.973L420.07 287.779L336.802 244.506C328.061 239.937 325.28 232.935 326.339 222.655C327.399 212.374 331.554 206.233 341.023 203.7L431.26 179.696L429.29 198.651L347.645 220.188C345.244 220.817 344.069 222.307 343.821 224.624C343.572 226.942 344.433 228.631 346.635 229.889L422.006 268.99L422.023 268.973Z" fill="white"/>
<path d="M358.685 370.963L346.882 385.73L300.232 304.299C295.348 295.741 296.789 288.324 303.245 280.262C309.701 272.2 316.505 269.254 325.841 272.25L414.721 300.839L402.819 315.722L322.497 289.698C320.13 288.92 318.342 289.533 316.885 291.354C315.429 293.175 315.23 295.062 316.405 297.313L358.668 370.947L358.685 370.963Z" fill="white"/>
<path d="M250.238 422.532L232.327 428.574L237.111 334.844C237.624 324.994 242.855 319.547 252.639 316.253C262.29 312.992 269.739 314.167 275.98 321.733L335.294 393.843L317.234 399.935L263.73 334.612C262.157 332.692 260.32 332.228 258.118 332.973C255.917 333.718 254.725 335.191 254.493 337.724L250.238 422.515V422.532Z" fill="white"/>
<path d="M609.011 364.524H552.26L655.734 102.563C666.641 75.0561 686.737 64.5684 717.739 64.5684C748.742 64.5684 768.377 75.0561 778.865 102.563L878.404 364.524H821.213L731.702 127.452C729.085 120.461 724.27 117.404 717.3 117.404C710.329 117.404 705.514 120.461 702.458 127.452L609.032 364.524H609.011Z" fill="white"/>
<path d="M1092.76 69.8232V121.341H1006.74V364.524H954.788V121.341H868.772V69.8232H1092.76Z" fill="white"/>
<path d="M1189.68 69.8227V262.369C1189.68 290.754 1203.65 313.007 1249.93 313.007H1364.33V364.524H1246.87C1168.73 364.524 1138.17 321.736 1138.17 262.787V69.8018H1189.68V69.8227Z" fill="white"/>
<path d="M1442.04 364.524H1385.29L1488.76 102.563C1499.67 75.0561 1519.76 64.5684 1550.76 64.5684C1581.77 64.5684 1601.4 75.0561 1611.89 102.563L1711.43 364.524H1654.24L1564.73 127.452C1562.11 120.461 1557.3 117.404 1550.32 117.404C1543.35 117.404 1538.54 120.461 1535.48 127.452L1442.06 364.524H1442.04Z" fill="white"/>
<path d="M1982.56 69.8232V121.341H1831.48C1804.85 121.341 1793.07 135.743 1793.07 156.278C1793.07 174.177 1802.24 191.216 1836.74 191.216H1905.71C1986.05 191.216 2004.83 235.742 2004.83 278.111C2004.83 327.891 1978.2 364.566 1910.97 364.566H1746.81V313.049H1912.72C1940.67 313.049 1953.34 297.768 1953.34 276.374C1953.34 257.157 1943.29 239.698 1907.05 239.698H1838.49C1759.91 239.698 1741.57 195.591 1741.57 154.562C1741.57 105.661 1767.76 69.8651 1833.26 69.8651H1982.58L1982.56 69.8232Z" fill="white"/>
</svg>
