<svg width="245" height="56" viewBox="0 0 245 56" fill="none" xmlns="http://www.w3.org/2000/svg">
<rect width="245" height="56" rx="8" fill="#D9D9D9" fill-opacity="0.2"/>
<path d="M13.9997 19.6125C13.9997 15.942 16.942 13.0001 20.6128 13.0001L39.1517 13.0001C42.9143 13 45.9998 16.0852 45.9998 19.8474L45.9998 38.3875C45.9998 42.058 43.0575 44.9999 39.3866 44.9999L20.8478 44.9999C17.0852 44.9999 13.9998 41.9148 13.9998 38.1526L13.9997 19.6125Z" fill="#FE6600"/>
<path fill-rule="evenodd" clip-rule="evenodd" d="M33.9453 34.5217C33.82 35.6758 33.1358 36.6071 32.0644 37.0822C31.4677 37.3468 30.6641 37.4954 30.0262 37.4593C29.0314 37.433 28.0944 37.2013 27.228 36.7675C26.9185 36.6125 26.4561 36.3011 26.1005 36.0084C26.0104 35.9345 25.9992 35.8866 26.0573 35.8018C26.0885 35.7531 26.1462 35.6654 26.2738 35.4727C26.4589 35.1933 26.482 35.1583 26.5028 35.1255C26.5619 35.0319 26.6597 35.0226 26.7572 35.0978C26.7674 35.1056 26.7674 35.1056 26.7752 35.1115C26.7912 35.1237 26.7912 35.1237 26.8289 35.1524C26.8671 35.1816 26.8897 35.1988 26.8989 35.2055C27.8362 35.925 28.9228 36.3334 30.0151 36.3625C31.534 36.3236 32.6182 35.6245 32.8014 34.5687C33.0028 33.4067 32.0848 32.416 30.3053 31.8789C29.7488 31.7109 28.3406 31.1641 28.0804 31.015C26.8585 30.3143 26.28 29.3843 26.3468 28.2264C26.4512 26.6211 27.9192 25.4073 29.7921 25.3769C30.6296 25.3652 31.4675 25.5301 32.2745 25.8604C32.5602 25.9773 33.0711 26.2487 33.248 26.3781C33.3498 26.4513 33.3708 26.5379 33.314 26.6322C33.2824 26.6869 33.23 26.7736 33.1195 26.9543L33.1183 26.9563C32.9729 27.1944 32.9684 27.2018 32.935 27.2575C32.8774 27.3481 32.8084 27.3573 32.7017 27.291C31.8355 26.7215 30.8796 26.4412 29.8318 26.4326C28.5279 26.4741 27.5597 27.2653 27.5081 28.3281C27.5025 29.2876 28.2271 29.9793 29.7806 30.4948C32.9332 31.4711 34.1491 32.6452 33.9453 34.5217ZM29.8695 18.0087C31.9141 17.9843 33.6039 19.9134 33.711 22.3522L26.1327 22.4425C26.1816 20.0019 27.8249 18.0331 29.8695 18.0087ZM40.5088 22.7299C40.5057 22.4765 40.3002 22.2736 40.0497 22.2766L35.1377 22.3352C34.9788 19.1153 32.659 16.574 29.8527 16.6074C27.0466 16.6409 24.7881 19.2368 24.7059 22.4595L19.7869 22.5183C19.5403 22.5257 19.3441 22.7317 19.3471 22.9822C19.3473 22.9941 19.3479 23.006 19.3489 23.0177L19.3454 23.0178L20.2317 38.5357C20.2323 38.5789 20.2344 38.6224 20.2382 38.6662C20.239 38.6761 20.2399 38.6859 20.2408 38.6957L20.2427 38.7285L20.2444 38.7302C20.3639 39.8093 21.1548 40.6702 22.2167 40.6977L22.2192 40.7L37.8228 40.5139C37.8302 40.5139 37.8376 40.5139 37.845 40.5139C37.8524 40.5138 37.8598 40.5136 37.8672 40.5134L37.9004 40.513L37.9011 40.5124C38.9807 40.4699 39.8449 39.5771 39.9243 38.4823L39.9248 38.4817L39.9253 38.4671C39.9261 38.4555 39.9268 38.4441 39.9273 38.4326C39.9287 38.405 39.9295 38.3775 39.9296 38.3502L40.509 22.7535L40.5084 22.7535C40.5088 22.7457 40.5089 22.7378 40.5088 22.7299Z" fill="white"/>
<path d="M59.3907 12.9333C59.3536 12.6205 59.2098 12.3762 58.9595 12.2006C58.7116 12.025 58.3907 11.9361 57.9968 11.9339C57.7199 11.9324 57.4829 11.9729 57.2858 12.0553C57.0886 12.1378 56.9384 12.2503 56.8351 12.3929C56.7318 12.5356 56.68 12.6988 56.6798 12.8825C56.6816 13.0353 56.7178 13.168 56.7884 13.2805C56.8613 13.3931 56.9591 13.4891 57.0818 13.5686C57.2045 13.6456 57.3401 13.7108 57.4887 13.7641C57.6373 13.8175 57.7871 13.8625 57.9379 13.8991L58.6274 14.0748C58.905 14.1407 59.1722 14.2293 59.429 14.3405C59.6881 14.4518 59.9201 14.5915 60.125 14.7597C60.3322 14.9279 60.497 15.1305 60.6191 15.3675C60.7413 15.6044 60.8043 15.8816 60.8081 16.1991C60.8132 16.6287 60.7079 17.0065 60.4922 17.3322C60.2764 17.6556 59.962 17.9081 59.5488 18.0896C59.138 18.2687 58.639 18.3566 58.0518 18.3534C57.4813 18.3502 56.985 18.2592 56.5627 18.0802C56.1429 17.9013 55.8128 17.6417 55.5725 17.3014C55.3345 16.9612 55.203 16.5476 55.1781 16.0605L56.485 16.0678C56.5072 16.3233 56.5885 16.5361 56.729 16.7064C56.8694 16.8766 57.0512 17.0041 57.2741 17.0889C57.4995 17.1737 57.7507 17.2168 58.0276 17.2184C58.3164 17.22 58.5689 17.1784 58.7851 17.0937C59.0037 17.0066 59.1741 16.8858 59.2963 16.7313C59.4186 16.5745 59.4797 16.391 59.4795 16.181C59.4749 15.99 59.4169 15.8322 59.3056 15.7075C59.1943 15.5804 59.0391 15.4745 58.84 15.3898C58.6432 15.3028 58.4131 15.2252 58.1498 15.1569L57.3129 14.9375C56.7072 14.779 56.227 14.5412 55.8723 14.2242C55.52 13.9048 55.3408 13.4826 55.3345 12.9574C55.3293 12.5254 55.4418 12.1477 55.6719 11.8244C55.9043 11.5011 56.2224 11.2511 56.626 11.0743C57.0297 10.8951 57.4881 10.807 58.0013 10.8098C58.5217 10.8127 58.9787 10.9059 59.3723 11.0895C59.7683 11.2707 60.0804 11.5218 60.3086 11.8429C60.5368 12.1616 60.6569 12.5274 60.669 12.9404L59.3907 12.9333ZM63.2173 15.0489L63.2557 18.2712L61.9596 18.264L61.8722 10.9315L63.1397 10.9385L63.1727 13.7061L63.2371 13.7065C63.3623 13.3969 63.5587 13.1533 63.8263 12.9758C64.0963 12.7959 64.4413 12.7071 64.8614 12.7094C65.2434 12.7115 65.5773 12.7933 65.8633 12.9548C66.1492 13.1163 66.3716 13.3515 66.5305 13.6602C66.6917 13.969 66.7749 14.3454 66.7802 14.7894L66.822 18.2909L65.5258 18.2838L65.4864 14.9827C65.482 14.6127 65.3831 14.3246 65.1897 14.1182C64.9987 13.9095 64.7325 13.8042 64.3911 13.8023C64.162 13.8011 63.9573 13.8501 63.7771 13.9493C63.5992 14.0462 63.4601 14.1874 63.3596 14.373C63.2616 14.5587 63.2142 14.7839 63.2173 15.0489ZM70.5434 18.4189C70.0063 18.416 69.5395 18.2952 69.1428 18.0568C68.7461 17.8183 68.4366 17.486 68.2143 17.0599C67.9944 16.6339 67.8811 16.1368 67.8743 15.5687C67.8676 15.0006 67.9691 14.5036 68.1788 14.0775C68.3909 13.6514 68.6925 13.3214 69.0836 13.0872C69.4746 12.8531 69.9387 12.7375 70.4757 12.7405C71.0128 12.7435 71.4797 12.8642 71.8764 13.1027C72.2731 13.3412 72.5814 13.6746 72.8013 14.1031C73.0236 14.5315 73.1381 15.0298 73.1449 15.5979C73.1517 16.166 73.049 16.6618 72.8368 17.0855C72.6271 17.5092 72.3267 17.8381 71.9356 18.0722C71.5446 18.3063 71.0805 18.4219 70.5434 18.4189ZM70.5382 17.3807C70.8294 17.3823 71.072 17.3037 71.2658 17.1448C71.4596 16.9836 71.6026 16.7672 71.6948 16.4956C71.7895 16.2241 71.8348 15.9212 71.8308 15.587C71.8268 15.2505 71.7742 14.9459 71.6731 14.6732C71.5744 14.3982 71.4262 14.179 71.2285 14.0156C71.0308 13.8522 70.7864 13.7697 70.4952 13.7681C70.1968 13.7664 69.9495 13.8462 69.7533 14.0074C69.5595 14.1687 69.4153 14.3863 69.3207 14.6602C69.2285 14.9318 69.1844 15.2359 69.1884 15.5724C69.1923 15.9066 69.2437 16.21 69.3424 16.4826C69.4435 16.7553 69.5929 16.9733 69.7906 17.1367C69.9906 17.2977 70.2398 17.379 70.5382 17.3807ZM74.3021 20.3945L74.212 12.8328L75.4867 12.8398L75.4975 13.7492L75.5727 13.7497C75.638 13.6164 75.7305 13.4749 75.8505 13.3252C75.9704 13.1731 76.1336 13.0439 76.34 12.9376C76.5463 12.829 76.8106 12.7756 77.1329 12.7773C77.5578 12.7797 77.9422 12.8904 78.2861 13.1095C78.6324 13.3262 78.9083 13.6464 79.1139 14.07C79.3218 14.4912 79.4294 15.0073 79.4367 15.6184C79.4439 16.2223 79.3509 16.7349 79.1578 17.1563C78.9647 17.5777 78.6988 17.8984 78.3601 18.1185C78.0214 18.3386 77.6361 18.4474 77.204 18.4451C76.8889 18.4433 76.6269 18.3894 76.418 18.2832C76.2091 18.177 76.0405 18.0496 75.9122 17.9009C75.7863 17.7498 75.6879 17.6073 75.6171 17.4732L75.5634 17.4729L75.5983 20.4017L74.3021 20.3945ZM75.5159 15.5895C75.5201 15.9452 75.574 16.2569 75.6774 16.5248C75.7832 16.7927 75.9325 17.0024 76.1253 17.1538C76.3204 17.3029 76.5552 17.3782 76.8297 17.3797C77.1162 17.3813 77.3551 17.3062 77.5467 17.1545C77.7382 17.0004 77.8813 16.79 77.9759 16.5232C78.073 16.2541 78.1195 15.9476 78.1154 15.6039C78.1113 15.2626 78.0587 14.9592 77.9577 14.6937C77.8567 14.4282 77.7086 14.2197 77.5135 14.0683C77.3183 13.9168 77.0763 13.8403 76.7875 13.8387C76.5106 13.8372 76.2763 13.9087 76.0847 14.0532C75.8931 14.1978 75.7488 14.401 75.6516 14.663C75.5569 14.925 75.5116 15.2339 75.5159 15.5895ZM83.0154 18.488C82.464 18.4849 81.9864 18.3677 81.5826 18.1363C81.1812 17.9026 80.8706 17.5739 80.6507 17.1502C80.4309 16.7242 80.3175 16.2235 80.3106 15.6483C80.3039 15.0826 80.4054 14.5867 80.6151 14.1606C80.8272 13.7322 81.1264 13.3997 81.5126 13.1632C81.8988 12.9242 82.3545 12.8062 82.8797 12.8091C83.2186 12.811 83.5391 12.8677 83.8412 12.9791C84.1456 13.0882 84.415 13.2568 84.6492 13.4848C84.8859 13.7129 85.0731 14.0027 85.211 14.3543C85.3488 14.7036 85.4206 15.1192 85.4263 15.6014L85.4311 15.9988L80.9232 15.9739L80.9127 15.1003L84.1782 15.1183C84.1729 14.8701 84.1165 14.649 84.0092 14.4551C83.9018 14.2588 83.7532 14.104 83.5633 13.9908C83.3757 13.8776 83.1579 13.8203 82.9096 13.8189C82.6446 13.8174 82.4127 13.8806 82.2137 14.0084C82.0147 14.1338 81.8603 14.3 81.7506 14.507C81.6433 14.7117 81.5899 14.9369 81.5904 15.1828L81.5995 15.9454C81.6033 16.2652 81.6651 16.5401 81.7848 16.7698C81.9044 16.9973 82.07 17.1724 82.2815 17.2953C82.493 17.4158 82.7396 17.4768 83.0212 17.4784C83.2098 17.4794 83.3802 17.4541 83.5323 17.4025C83.6844 17.3484 83.816 17.2692 83.9269 17.1648C84.0378 17.0604 84.121 16.9308 84.1765 16.7759L85.3883 16.9187C85.3158 17.2381 85.1735 17.5166 84.9615 17.7541C84.7519 17.9892 84.4819 18.1715 84.1517 18.3009C83.8214 18.428 83.4427 18.4903 83.0154 18.488ZM88.9922 18.521C88.4408 18.518 87.9632 18.4008 87.5595 18.1694C87.1581 17.9357 86.8474 17.607 86.6276 17.1833C86.4077 16.7572 86.2943 16.2566 86.2874 15.6813C86.2807 15.1157 86.3822 14.6198 86.5919 14.1937C86.804 13.7653 87.1032 13.4328 87.4895 13.1962C87.8757 12.9573 88.3313 12.8393 88.8565 12.8422C89.1955 12.8441 89.516 12.9008 89.818 13.0122C90.1225 13.1213 90.3918 13.2899 90.6261 13.5179C90.8627 13.746 91.0499 14.0358 91.1878 14.3874C91.3256 14.7366 91.3974 15.1523 91.4032 15.6345L91.4079 16.0319L86.9 16.0069L86.8896 15.1333L90.155 15.1514C90.1497 14.9032 90.0933 14.6821 89.986 14.4882C89.8786 14.2918 89.73 14.1371 89.5401 14.0239C89.3526 13.9106 89.1347 13.8533 88.8864 13.852C88.6215 13.8505 88.3895 13.9137 88.1905 14.0414C87.9915 14.1668 87.8372 14.3331 87.7275 14.5401C87.6201 14.7448 87.5667 14.97 87.5672 15.2159L87.5763 15.9785C87.5801 16.2983 87.6419 16.5731 87.7616 16.8029C87.8813 17.0303 88.0468 17.2055 88.2584 17.3284C88.4698 17.4489 88.7164 17.5099 88.9981 17.5115C89.1867 17.5125 89.357 17.4872 89.5092 17.4355C89.6613 17.3815 89.7928 17.3023 89.9037 17.1978C90.0147 17.0934 90.0979 16.9638 90.1533 16.809L91.3652 16.9517C91.2926 17.2712 91.1503 17.5496 90.9383 17.7871C90.7287 18.0223 90.4588 18.2045 90.1285 18.334C89.7983 18.461 89.4195 18.5234 88.9922 18.521Z" fill="#F6F6F6"/>
<path d="M55.7045 31L55.7045 25.1818L56.4091 25.1818L56.4091 30.375L59.1136 30.375L59.1136 31L55.7045 31ZM62.8636 29.2159L62.8636 26.6364L63.5341 26.6364L63.5341 31L62.8636 31L62.8636 30.2614L62.8182 30.2614C62.7159 30.483 62.5568 30.6714 62.3409 30.8267C62.125 30.9801 61.8523 31.0568 61.5227 31.0568C61.25 31.0568 61.0076 30.9972 60.7955 30.8778C60.5833 30.7566 60.4167 30.5748 60.2955 30.3324C60.1742 30.0881 60.1136 29.7803 60.1136 29.4091L60.1136 26.6364L60.7841 26.6364L60.7841 29.3636C60.7841 29.6818 60.8731 29.9356 61.0511 30.125C61.2311 30.3144 61.4602 30.4091 61.7386 30.4091C61.9053 30.4091 62.0748 30.3665 62.2472 30.2812C62.4214 30.196 62.5672 30.0653 62.6847 29.8892C62.804 29.7131 62.8636 29.4886 62.8636 29.2159ZM64.7621 31L64.7621 26.6364L65.4325 26.6364L65.4325 31L64.7621 31ZM65.103 25.9091C64.9723 25.9091 64.8596 25.8646 64.7649 25.7756C64.6721 25.6866 64.6257 25.5795 64.6257 25.4545C64.6257 25.3295 64.6721 25.2225 64.7649 25.1335C64.8596 25.0445 64.9723 25 65.103 25C65.2337 25 65.3454 25.0445 65.4382 25.1335C65.5329 25.2225 65.5803 25.3295 65.5803 25.4545C65.5803 25.5795 65.5329 25.6866 65.4382 25.7756C65.3454 25.8646 65.2337 25.9091 65.103 25.9091ZM66.5355 31L66.5355 30.4886L69.0128 27.3068L69.0128 27.2614L66.6151 27.2614L66.6151 26.6364L69.8764 26.6364L69.8764 27.1705L67.4673 30.3295L67.4673 30.375L69.956 30.375L69.956 31L66.5355 31ZM75.1818 26.6364L75.1818 27.2045L72.8295 27.2045L72.8295 26.6364L75.1818 26.6364ZM73.5341 31L73.5341 26.0341C73.5341 25.7841 73.5928 25.5758 73.7102 25.4091C73.8277 25.2424 73.9801 25.1174 74.1676 25.0341C74.3551 24.9508 74.553 24.9091 74.7614 24.9091C74.9261 24.9091 75.0606 24.9223 75.1648 24.9489C75.2689 24.9754 75.3466 25 75.3977 25.0227L75.2045 25.6023C75.1705 25.5909 75.1231 25.5767 75.0625 25.5597C75.0038 25.5426 74.9261 25.5341 74.8295 25.5341C74.608 25.5341 74.4479 25.59 74.3494 25.7017C74.2528 25.8134 74.2045 25.9773 74.2045 26.1932L74.2045 31L73.5341 31ZM77.7713 31.0909C77.3509 31.0909 76.9882 30.9981 76.6832 30.8125C76.3802 30.625 76.1463 30.3636 75.9815 30.0284C75.8187 29.6913 75.7372 29.2992 75.7372 28.8523C75.7372 28.4053 75.8187 28.0114 75.9815 27.6705C76.1463 27.3277 76.3755 27.0606 76.669 26.8693C76.9645 26.6761 77.3092 26.5795 77.7031 26.5795C77.9304 26.5795 78.1548 26.6174 78.3764 26.6932C78.598 26.7689 78.7997 26.892 78.9815 27.0625C79.1634 27.2311 79.3082 27.4545 79.4162 27.733C79.5241 28.0114 79.5781 28.3542 79.5781 28.7614L79.5781 29.0455L76.2145 29.0455L76.2145 28.4659L78.8963 28.4659C78.8963 28.2197 78.8471 28 78.7486 27.8068C78.652 27.6136 78.5137 27.4612 78.3338 27.3494C78.1558 27.2377 77.9455 27.1818 77.7031 27.1818C77.4361 27.1818 77.205 27.2481 77.0099 27.3807C76.8168 27.5114 76.6681 27.6818 76.5639 27.892C76.4598 28.1023 76.4077 28.3277 76.4077 28.5682L76.4077 28.9545C76.4077 29.2841 76.4645 29.5634 76.5781 29.7926C76.6937 30.0199 76.8537 30.1932 77.0582 30.3125C77.2628 30.4299 77.5005 30.4886 77.7713 30.4886C77.9474 30.4886 78.1065 30.464 78.2486 30.4148C78.3925 30.3636 78.5166 30.2879 78.6207 30.1875C78.7249 30.0852 78.8054 29.9583 78.8622 29.8068L79.5099 29.9886C79.4418 30.2083 79.3272 30.4015 79.1662 30.5682C79.0052 30.733 78.8063 30.8617 78.5696 30.9545C78.3329 31.0455 78.0668 31.0909 77.7713 31.0909ZM80.473 31L80.473 30.4886L82.9503 27.3068L82.9503 27.2614L80.5526 27.2614L80.5526 26.6364L83.8139 26.6364L83.8139 27.1705L81.4048 30.3295L81.4048 30.375L83.8935 30.375L83.8935 31L80.473 31ZM89.9261 29.2159L89.9261 26.6364L90.5966 26.6364L90.5966 31L89.9261 31L89.9261 30.2614L89.8807 30.2614C89.7784 30.483 89.6193 30.6714 89.4034 30.8267C89.1875 30.9801 88.9148 31.0568 88.5852 31.0568C88.3125 31.0568 88.0701 30.9972 87.858 30.8778C87.6458 30.7566 87.4792 30.5748 87.358 30.3324C87.2367 30.0881 87.1761 29.7803 87.1761 29.4091L87.1761 26.6364L87.8466 26.6364L87.8466 29.3636C87.8466 29.6818 87.9356 29.9356 88.1136 30.125C88.2936 30.3144 88.5227 30.4091 88.8011 30.4091C88.9678 30.4091 89.1373 30.3665 89.3097 30.2812C89.4839 30.196 89.6297 30.0653 89.7472 29.8892C89.8665 29.7131 89.9261 29.4886 89.9261 29.2159ZM91.8246 31L91.8246 26.6364L92.4723 26.6364L92.4723 27.3182L92.5291 27.3182C92.62 27.0852 92.7668 26.9044 92.9695 26.7756C93.1721 26.6449 93.4155 26.5795 93.6996 26.5795C93.9875 26.5795 94.227 26.6449 94.4183 26.7756C94.6115 26.9044 94.7621 27.0852 94.87 27.3182L94.9155 27.3182C95.0272 27.0928 95.1948 26.9138 95.4183 26.7812C95.6418 26.6468 95.9098 26.5795 96.2223 26.5795C96.6125 26.5795 96.9316 26.7017 97.1797 26.946C97.4278 27.1884 97.5518 27.5663 97.5518 28.0795L97.5518 31L96.8814 31L96.8814 28.0795C96.8814 27.7576 96.7933 27.5275 96.6172 27.3892C96.441 27.2509 96.2337 27.1818 95.995 27.1818C95.6882 27.1818 95.4505 27.2746 95.282 27.4602C95.1134 27.6439 95.0291 27.8769 95.0291 28.1591L95.0291 31L94.3473 31L94.3473 28.0114C94.3473 27.7633 94.2668 27.5634 94.1058 27.4119C93.9448 27.2585 93.7375 27.1818 93.4837 27.1818C93.3094 27.1818 93.1465 27.2282 92.995 27.321C92.8454 27.4138 92.7242 27.5426 92.6314 27.7074C92.5405 27.8703 92.495 28.0587 92.495 28.2727L92.495 31L91.8246 31ZM101.028 32.6364L101.028 26.6364L101.675 26.6364L101.675 27.3295L101.755 27.3295C101.804 27.2538 101.872 27.1572 101.96 27.0398C102.049 26.9205 102.175 26.8144 102.34 26.7216C102.507 26.6269 102.732 26.5795 103.016 26.5795C103.384 26.5795 103.708 26.6714 103.988 26.8551C104.268 27.0388 104.487 27.2992 104.644 27.6364C104.801 27.9735 104.88 28.3712 104.88 28.8295C104.88 29.2917 104.801 29.6922 104.644 30.0312C104.487 30.3684 104.269 30.6297 103.991 30.8153C103.712 30.9991 103.391 31.0909 103.028 31.0909C102.747 31.0909 102.523 31.0445 102.354 30.9517C102.186 30.857 102.056 30.75 101.965 30.6307C101.874 30.5095 101.804 30.4091 101.755 30.3295L101.698 30.3295L101.698 32.6364L101.028 32.6364ZM101.687 28.8182C101.687 29.1477 101.735 29.4384 101.832 29.6903C101.928 29.9403 102.069 30.1364 102.255 30.2784C102.441 30.4186 102.668 30.4886 102.937 30.4886C103.217 30.4886 103.451 30.4148 103.638 30.267C103.828 30.1174 103.97 29.9167 104.065 29.6648C104.161 29.411 104.21 29.1288 104.21 28.8182C104.21 28.5114 104.162 28.2348 104.067 27.9886C103.975 27.7405 103.834 27.5445 103.644 27.4006C103.457 27.2547 103.221 27.1818 102.937 27.1818C102.664 27.1818 102.435 27.2509 102.249 27.3892C102.064 27.5256 101.924 27.7169 101.829 27.9631C101.734 28.2074 101.687 28.4924 101.687 28.8182ZM107.732 31.0909C107.312 31.0909 106.949 30.9981 106.644 30.8125C106.341 30.625 106.107 30.3636 105.942 30.0284C105.78 29.6913 105.698 29.2992 105.698 28.8523C105.698 28.4053 105.78 28.0114 105.942 27.6705C106.107 27.3277 106.336 27.0606 106.63 26.8693C106.925 26.6761 107.27 26.5795 107.664 26.5795C107.891 26.5795 108.116 26.6174 108.337 26.6932C108.559 26.7689 108.761 26.892 108.942 27.0625C109.124 27.2311 109.269 27.4545 109.377 27.733C109.485 28.0114 109.539 28.3542 109.539 28.7614L109.539 29.0455L106.175 29.0455L106.175 28.4659L108.857 28.4659C108.857 28.2197 108.808 28 108.71 27.8068C108.613 27.6136 108.475 27.4612 108.295 27.3494C108.117 27.2377 107.906 27.1818 107.664 27.1818C107.397 27.1818 107.166 27.2481 106.971 27.3807C106.778 27.5114 106.629 27.6818 106.525 27.892C106.421 28.1023 106.369 28.3277 106.369 28.5682L106.369 28.9545C106.369 29.2841 106.425 29.5634 106.539 29.7926C106.655 30.0199 106.815 30.1932 107.019 30.3125C107.224 30.4299 107.461 30.4886 107.732 30.4886C107.908 30.4886 108.067 30.464 108.21 30.4148C108.353 30.3636 108.478 30.2879 108.582 30.1875C108.686 30.0852 108.766 29.9583 108.823 29.8068L109.471 29.9886C109.403 30.2083 109.288 30.4015 109.127 30.5682C108.966 30.733 108.767 30.8617 108.531 30.9545C108.294 31.0455 108.028 31.0909 107.732 31.0909ZM112.207 31.0909C111.843 31.0909 111.522 30.9991 111.244 30.8153C110.965 30.6297 110.747 30.3684 110.59 30.0312C110.433 29.6922 110.354 29.2917 110.354 28.8295C110.354 28.3712 110.433 27.9735 110.59 27.6364C110.747 27.2992 110.966 27.0388 111.246 26.8551C111.527 26.6714 111.851 26.5795 112.218 26.5795C112.502 26.5795 112.727 26.6269 112.891 26.7216C113.058 26.8144 113.185 26.9205 113.272 27.0398C113.361 27.1572 113.43 27.2538 113.479 27.3295L113.536 27.3295L113.536 25.1818L114.207 25.1818L114.207 31L113.559 31L113.559 30.3295L113.479 30.3295C113.43 30.4091 113.36 30.5095 113.269 30.6307C113.178 30.75 113.049 30.857 112.88 30.9517C112.711 31.0445 112.487 31.0909 112.207 31.0909ZM112.298 30.4886C112.567 30.4886 112.794 30.4186 112.979 30.2784C113.165 30.1364 113.306 29.9403 113.403 29.6903C113.499 29.4384 113.548 29.1477 113.548 28.8182C113.548 28.4924 113.5 28.2074 113.406 27.9631C113.311 27.7169 113.171 27.5256 112.985 27.3892C112.799 27.2509 112.57 27.1818 112.298 27.1818C112.013 27.1818 111.777 27.2547 111.587 27.4006C111.4 27.5445 111.259 27.7405 111.164 27.9886C111.071 28.2348 111.025 28.5114 111.025 28.8182C111.025 29.1288 111.072 29.411 111.167 29.6648C111.263 29.9167 111.406 30.1174 111.593 30.267C111.782 30.4148 112.017 30.4886 112.298 30.4886ZM115.528 31L115.528 26.6364L116.198 26.6364L116.198 31L115.528 31ZM115.869 25.9091C115.738 25.9091 115.625 25.8646 115.531 25.7756C115.438 25.6866 115.391 25.5795 115.391 25.4545C115.391 25.3295 115.438 25.2225 115.531 25.1335C115.625 25.0445 115.738 25 115.869 25C115.999 25 116.111 25.0445 116.204 25.1335C116.299 25.2225 116.346 25.3295 116.346 25.4545C116.346 25.5795 116.299 25.6866 116.204 25.7756C116.111 25.8646 115.999 25.9091 115.869 25.9091ZM119.074 31.0909C118.71 31.0909 118.389 30.9991 118.111 30.8153C117.832 30.6297 117.615 30.3684 117.457 30.0312C117.3 29.6922 117.222 29.2917 117.222 28.8295C117.222 28.3712 117.3 27.9735 117.457 27.6364C117.615 27.2992 117.833 27.0388 118.114 26.8551C118.394 26.6714 118.718 26.5795 119.085 26.5795C119.369 26.5795 119.594 26.6269 119.759 26.7216C119.925 26.8144 120.052 26.9205 120.139 27.0398C120.228 27.1572 120.297 27.2538 120.347 27.3295L120.403 27.3295L120.403 25.1818L121.074 25.1818L121.074 31L120.426 31L120.426 30.3295L120.347 30.3295C120.297 30.4091 120.227 30.5095 120.136 30.6307C120.045 30.75 119.916 30.857 119.747 30.9517C119.579 31.0445 119.354 31.0909 119.074 31.0909ZM119.165 30.4886C119.434 30.4886 119.661 30.4186 119.847 30.2784C120.032 30.1364 120.173 29.9403 120.27 29.6903C120.366 29.4384 120.415 29.1477 120.415 28.8182C120.415 28.4924 120.367 28.2074 120.273 27.9631C120.178 27.7169 120.038 27.5256 119.852 27.3892C119.667 27.2509 119.437 27.1818 119.165 27.1818C118.881 27.1818 118.644 27.2547 118.455 27.4006C118.267 27.5445 118.126 27.7405 118.031 27.9886C117.938 28.2348 117.892 28.5114 117.892 28.8182C117.892 29.1288 117.939 29.411 118.034 29.6648C118.131 29.9167 118.273 30.1174 118.46 30.267C118.65 30.4148 118.884 30.4886 119.165 30.4886ZM124.168 31.0909C123.774 31.0909 123.428 30.9972 123.131 30.8097C122.835 30.6222 122.604 30.3598 122.437 30.0227C122.273 29.6856 122.19 29.2917 122.19 28.8409C122.19 28.3864 122.273 27.9896 122.437 27.6506C122.604 27.3116 122.835 27.0483 123.131 26.8608C123.428 26.6733 123.774 26.5795 124.168 26.5795C124.562 26.5795 124.906 26.6733 125.202 26.8608C125.499 27.0483 125.73 27.3116 125.895 27.6506C126.062 27.9896 126.145 28.3864 126.145 28.8409C126.145 29.2917 126.062 29.6856 125.895 30.0227C125.73 30.3598 125.499 30.6222 125.202 30.8097C124.906 30.9972 124.562 31.0909 124.168 31.0909ZM124.168 30.4886C124.467 30.4886 124.713 30.4119 124.906 30.2585C125.099 30.1051 125.242 29.9034 125.335 29.6534C125.428 29.4034 125.474 29.1326 125.474 28.8409C125.474 28.5492 125.428 28.2775 125.335 28.0256C125.242 27.7737 125.099 27.5701 124.906 27.4148C124.713 27.2595 124.467 27.1818 124.168 27.1818C123.868 27.1818 123.622 27.2595 123.429 27.4148C123.236 27.5701 123.093 27.7737 123 28.0256C122.907 28.2775 122.861 28.5492 122.861 28.8409C122.861 29.1326 122.907 29.4034 123 29.6534C123.093 29.9034 123.236 30.1051 123.429 30.2585C123.622 30.4119 123.868 30.4886 124.168 30.4886ZM131.066 31.0909C130.702 31.0909 130.381 30.9991 130.103 30.8153C129.825 30.6297 129.607 30.3684 129.45 30.0312C129.292 29.6922 129.214 29.2917 129.214 28.8295C129.214 28.3712 129.292 27.9735 129.45 27.6364C129.607 27.2992 129.826 27.0388 130.106 26.8551C130.386 26.6714 130.71 26.5795 131.077 26.5795C131.362 26.5795 131.586 26.6269 131.751 26.7216C131.917 26.8144 132.044 26.9205 132.131 27.0398C132.22 27.1572 132.29 27.2538 132.339 27.3295L132.396 27.3295L132.396 25.1818L133.066 25.1818L133.066 31L132.418 31L132.418 30.3295L132.339 30.3295C132.29 30.4091 132.219 30.5095 132.129 30.6307C132.038 30.75 131.908 30.857 131.739 30.9517C131.571 31.0445 131.346 31.0909 131.066 31.0909ZM131.157 30.4886C131.426 30.4886 131.653 30.4186 131.839 30.2784C132.024 30.1364 132.165 29.9403 132.262 29.6903C132.359 29.4384 132.407 29.1477 132.407 28.8182C132.407 28.4924 132.36 28.2074 132.265 27.9631C132.17 27.7169 132.03 27.5256 131.844 27.3892C131.659 27.2509 131.43 27.1818 131.157 27.1818C130.873 27.1818 130.636 27.2547 130.447 27.4006C130.259 27.5445 130.118 27.7405 130.023 27.9886C129.931 28.2348 129.884 28.5114 129.884 28.8182C129.884 29.1288 129.932 29.411 130.026 29.6648C130.123 29.9167 130.265 30.1174 130.452 30.267C130.642 30.4148 130.877 30.4886 131.157 30.4886ZM136.217 31.0909C135.796 31.0909 135.433 30.9981 135.129 30.8125C134.826 30.625 134.592 30.3636 134.427 30.0284C134.264 29.6913 134.183 29.2992 134.183 28.8523C134.183 28.4053 134.264 28.0114 134.427 27.6705C134.592 27.3277 134.821 27.0606 135.114 26.8693C135.41 26.6761 135.754 26.5795 136.148 26.5795C136.376 26.5795 136.6 26.6174 136.822 26.6932C137.043 26.7689 137.245 26.892 137.427 27.0625C137.609 27.2311 137.754 27.4545 137.862 27.733C137.969 28.0114 138.023 28.3542 138.023 28.7614L138.023 29.0455L134.66 29.0455L134.66 28.4659L137.342 28.4659C137.342 28.2197 137.292 28 137.194 27.8068C137.097 27.6136 136.959 27.4612 136.779 27.3494C136.601 27.2377 136.391 27.1818 136.148 27.1818C135.881 27.1818 135.65 27.2481 135.455 27.3807C135.262 27.5114 135.113 27.6818 135.009 27.892C134.905 28.1023 134.853 28.3277 134.853 28.5682L134.853 28.9545C134.853 29.2841 134.91 29.5634 135.023 29.7926C135.139 30.0199 135.299 30.1932 135.504 30.3125C135.708 30.4299 135.946 30.4886 136.217 30.4886C136.393 30.4886 136.552 30.464 136.694 30.4148C136.838 30.3636 136.962 30.2879 137.066 30.1875C137.17 30.0852 137.251 29.9583 137.308 29.8068L137.955 29.9886C137.887 30.2083 137.772 30.4015 137.612 30.5682C137.451 30.733 137.252 30.8617 137.015 30.9545C136.778 31.0455 136.512 31.0909 136.217 31.0909ZM143.191 26.6364L143.191 27.2045L140.93 27.2045L140.93 26.6364L143.191 26.6364ZM141.589 25.5909L142.259 25.5909L142.259 29.75C142.259 29.9394 142.287 30.0814 142.342 30.1761C142.398 30.2689 142.47 30.3314 142.558 30.3636C142.647 30.3939 142.74 30.4091 142.839 30.4091C142.913 30.4091 142.973 30.4053 143.021 30.3977C143.068 30.3883 143.106 30.3807 143.134 30.375L143.271 30.9773C143.225 30.9943 143.162 31.0114 143.08 31.0284C142.999 31.0473 142.896 31.0568 142.771 31.0568C142.581 31.0568 142.396 31.0161 142.214 30.9347C142.034 30.8532 141.884 30.7292 141.765 30.5625C141.647 30.3958 141.589 30.1856 141.589 29.9318L141.589 25.5909ZM145.982 31.0909C145.562 31.0909 145.199 30.9981 144.894 30.8125C144.591 30.625 144.357 30.3636 144.192 30.0284C144.03 29.6913 143.948 29.2992 143.948 28.8523C143.948 28.4053 144.03 28.0114 144.192 27.6705C144.357 27.3277 144.586 27.0606 144.88 26.8693C145.175 26.6761 145.52 26.5795 145.914 26.5795C146.141 26.5795 146.366 26.6174 146.587 26.6932C146.809 26.7689 147.011 26.892 147.192 27.0625C147.374 27.2311 147.519 27.4545 147.627 27.733C147.735 28.0114 147.789 28.3542 147.789 28.7614L147.789 29.0455L144.425 29.0455L144.425 28.4659L147.107 28.4659C147.107 28.2197 147.058 28 146.96 27.8068C146.863 27.6136 146.725 27.4612 146.545 27.3494C146.367 27.2377 146.156 27.1818 145.914 27.1818C145.647 27.1818 145.416 27.2481 145.221 27.3807C145.028 27.5114 144.879 27.6818 144.775 27.892C144.671 28.1023 144.619 28.3277 144.619 28.5682L144.619 28.9545C144.619 29.2841 144.675 29.5634 144.789 29.7926C144.905 30.0199 145.065 30.1932 145.269 30.3125C145.474 30.4299 145.711 30.4886 145.982 30.4886C146.158 30.4886 146.317 30.464 146.46 30.4148C146.603 30.3636 146.728 30.2879 146.832 30.1875C146.936 30.0852 147.016 29.9583 147.073 29.8068L147.721 29.9886C147.653 30.2083 147.538 30.4015 147.377 30.5682C147.216 30.733 147.017 30.8617 146.781 30.9545C146.544 31.0455 146.278 31.0909 145.982 31.0909ZM146.471 26.1136L145.88 25.3182L145.289 26.1136L144.653 26.1136L144.653 26.0682L145.573 24.8864L146.187 24.8864L147.107 26.0682L147.107 26.1136L146.471 26.1136ZM149.479 28.375L149.479 31L148.809 31L148.809 26.6364L149.457 26.6364L149.457 27.3182L149.513 27.3182C149.616 27.0966 149.771 26.9186 149.979 26.7841C150.188 26.6477 150.457 26.5795 150.786 26.5795C151.082 26.5795 151.34 26.6402 151.562 26.7614C151.783 26.8807 151.956 27.0625 152.079 27.3068C152.202 27.5492 152.263 27.8561 152.263 28.2273L152.263 31L151.593 31L151.593 28.2727C151.593 27.9299 151.504 27.6629 151.326 27.4716C151.148 27.2784 150.904 27.1818 150.593 27.1818C150.379 27.1818 150.188 27.2282 150.019 27.321C149.853 27.4138 149.721 27.5492 149.624 27.7273C149.528 27.9053 149.479 28.1212 149.479 28.375ZM153.489 31L153.489 26.6364L154.159 26.6364L154.159 31L153.489 31ZM153.83 25.9091C153.699 25.9091 153.586 25.8646 153.491 25.7756C153.399 25.6866 153.352 25.5795 153.352 25.4545C153.352 25.3295 153.399 25.2225 153.491 25.1335C153.586 25.0445 153.699 25 153.83 25C153.96 25 154.072 25.0445 154.165 25.1335C154.259 25.2225 154.307 25.3295 154.307 25.4545C154.307 25.5795 154.259 25.6866 154.165 25.7756C154.072 25.8646 153.96 25.9091 153.83 25.9091ZM158.478 27.6136L157.876 27.7841C157.838 27.6837 157.782 27.5862 157.708 27.4915C157.636 27.3949 157.538 27.3153 157.413 27.2528C157.288 27.1903 157.128 27.1591 156.933 27.1591C156.665 27.1591 156.443 27.2206 156.265 27.3437C156.089 27.465 156.001 27.6193 156.001 27.8068C156.001 27.9735 156.061 28.1051 156.183 28.2017C156.304 28.2983 156.493 28.3788 156.751 28.4432L157.398 28.6023C157.789 28.697 158.079 28.8419 158.271 29.0369C158.462 29.2301 158.558 29.4792 158.558 29.7841C158.558 30.0341 158.486 30.2576 158.342 30.4545C158.2 30.6515 158.001 30.8068 157.745 30.9205C157.489 31.0341 157.192 31.0909 156.853 31.0909C156.408 31.0909 156.04 30.9943 155.748 30.8011C155.456 30.608 155.272 30.3258 155.194 29.9545L155.83 29.7955C155.891 30.0303 156.005 30.2064 156.174 30.3239C156.344 30.4413 156.567 30.5 156.842 30.5C157.154 30.5 157.402 30.4337 157.586 30.3011C157.772 30.1667 157.864 30.0057 157.864 29.8182C157.864 29.6667 157.811 29.5398 157.705 29.4375C157.599 29.3333 157.436 29.2557 157.217 29.2045L156.489 29.0341C156.09 28.9394 155.796 28.7926 155.609 28.5937C155.423 28.393 155.33 28.142 155.33 27.8409C155.33 27.5947 155.399 27.3769 155.538 27.1875C155.678 26.9981 155.868 26.8494 156.109 26.7415C156.351 26.6335 156.626 26.5795 156.933 26.5795C157.364 26.5795 157.703 26.6742 157.95 26.8636C158.198 27.053 158.374 27.303 158.478 27.6136ZM163.589 31.0909C163.18 31.0909 162.828 30.9943 162.533 30.8011C162.237 30.608 162.01 30.3419 161.851 30.0028C161.692 29.6638 161.612 29.2765 161.612 28.8409C161.612 28.3977 161.694 28.0066 161.857 27.6676C162.021 27.3267 162.25 27.0606 162.544 26.8693C162.839 26.6761 163.184 26.5795 163.578 26.5795C163.885 26.5795 164.161 26.6364 164.408 26.75C164.654 26.8636 164.856 27.0227 165.013 27.2273C165.17 27.4318 165.268 27.6705 165.305 27.9432L164.635 27.9432C164.584 27.7443 164.47 27.5682 164.294 27.4148C164.12 27.2595 163.885 27.1818 163.589 27.1818C163.328 27.1818 163.099 27.25 162.902 27.3864C162.707 27.5208 162.554 27.7112 162.445 27.9574C162.337 28.2017 162.283 28.4886 162.283 28.8182C162.283 29.1553 162.336 29.4489 162.442 29.6989C162.55 29.9489 162.701 30.143 162.896 30.2812C163.093 30.4195 163.324 30.4886 163.589 30.4886C163.764 30.4886 163.922 30.4583 164.064 30.3977C164.206 30.3371 164.326 30.25 164.425 30.1364C164.523 30.0227 164.593 29.8864 164.635 29.7273L165.305 29.7273C165.268 29.9848 165.174 30.2169 165.024 30.4233C164.876 30.6278 164.68 30.7907 164.436 30.9119C164.194 31.0312 163.911 31.0909 163.589 31.0909ZM167.57 31.1023C167.293 31.1023 167.042 31.0502 166.817 30.946C166.591 30.84 166.412 30.6875 166.28 30.4886C166.147 30.2879 166.081 30.0455 166.081 29.7614C166.081 29.5114 166.13 29.3087 166.229 29.1534C166.327 28.9962 166.459 28.8731 166.624 28.7841C166.788 28.6951 166.97 28.6288 167.169 28.5852C167.37 28.5398 167.571 28.5038 167.774 28.4773C168.039 28.4432 168.254 28.4176 168.419 28.4006C168.586 28.3816 168.707 28.3504 168.783 28.3068C168.86 28.2633 168.899 28.1875 168.899 28.0795L168.899 28.0568C168.899 27.7765 168.822 27.5587 168.669 27.4034C168.518 27.2481 168.287 27.1705 167.979 27.1705C167.659 27.1705 167.408 27.2405 167.226 27.3807C167.044 27.5208 166.916 27.6705 166.842 27.8295L166.206 27.6023C166.32 27.3371 166.471 27.1307 166.661 26.983C166.852 26.8333 167.06 26.7292 167.286 26.6705C167.513 26.6098 167.736 26.5795 167.956 26.5795C168.096 26.5795 168.257 26.5966 168.439 26.6307C168.623 26.6629 168.8 26.7301 168.97 26.8324C169.143 26.9347 169.286 27.089 169.399 27.2955C169.513 27.5019 169.57 27.7784 169.57 28.125L169.57 31L168.899 31L168.899 30.4091L168.865 30.4091C168.82 30.5038 168.744 30.6051 168.638 30.7131C168.532 30.821 168.391 30.9129 168.214 30.9886C168.038 31.0644 167.823 31.1023 167.57 31.1023ZM167.672 30.5C167.937 30.5 168.161 30.4479 168.342 30.3437C168.526 30.2396 168.664 30.1051 168.757 29.9403C168.852 29.7756 168.899 29.6023 168.899 29.4205L168.899 28.8068C168.871 28.8409 168.808 28.8722 168.712 28.9006C168.617 28.9271 168.507 28.9508 168.382 28.9716C168.259 28.9905 168.139 29.0076 168.021 29.0227C167.906 29.036 167.812 29.0473 167.74 29.0568C167.566 29.0795 167.403 29.1165 167.251 29.1676C167.102 29.2169 166.981 29.2917 166.888 29.392C166.797 29.4905 166.751 29.625 166.751 29.7955C166.751 30.0284 166.838 30.2045 167.01 30.3239C167.184 30.4413 167.405 30.5 167.672 30.5ZM173.884 27.6136L173.282 27.7841C173.244 27.6837 173.188 27.5862 173.114 27.4915C173.042 27.3949 172.944 27.3153 172.819 27.2528C172.694 27.1903 172.534 27.1591 172.339 27.1591C172.072 27.1591 171.849 27.2206 171.671 27.3437C171.495 27.465 171.407 27.6193 171.407 27.8068C171.407 27.9735 171.468 28.1051 171.589 28.2017C171.71 28.2983 171.899 28.3788 172.157 28.4432L172.805 28.6023C173.195 28.697 173.486 28.8419 173.677 29.0369C173.868 29.2301 173.964 29.4792 173.964 29.7841C173.964 30.0341 173.892 30.2576 173.748 30.4545C173.606 30.6515 173.407 30.8068 173.151 30.9205C172.896 31.0341 172.598 31.0909 172.259 31.0909C171.814 31.0909 171.446 30.9943 171.154 30.8011C170.862 30.608 170.678 30.3258 170.6 29.9545L171.236 29.7955C171.297 30.0303 171.412 30.2064 171.58 30.3239C171.751 30.4413 171.973 30.5 172.248 30.5C172.56 30.5 172.808 30.4337 172.992 30.3011C173.178 30.1667 173.271 30.0057 173.271 29.8182C173.271 29.6667 173.218 29.5398 173.111 29.4375C173.005 29.3333 172.843 29.2557 172.623 29.2045L171.896 29.0341C171.496 28.9394 171.202 28.7926 171.015 28.5937C170.829 28.393 170.736 28.142 170.736 27.8409C170.736 27.5947 170.806 27.3769 170.944 27.1875C171.084 26.9981 171.274 26.8494 171.515 26.7415C171.757 26.6335 172.032 26.5795 172.339 26.5795C172.771 26.5795 173.11 26.6742 173.356 26.8636C173.604 27.053 173.78 27.303 173.884 27.6136ZM177.723 29.2159L177.723 26.6364L178.393 26.6364L178.393 31L177.723 31L177.723 30.2614L177.678 30.2614C177.575 30.483 177.416 30.6714 177.2 30.8267C176.984 30.9801 176.712 31.0568 176.382 31.0568C176.109 31.0568 175.867 30.9972 175.655 30.8778C175.443 30.7566 175.276 30.5748 175.155 30.3324C175.034 30.0881 174.973 29.7803 174.973 29.4091L174.973 26.6364L175.643 26.6364L175.643 29.3636C175.643 29.6818 175.732 29.9356 175.911 30.125C176.09 30.3144 176.32 30.4091 176.598 30.4091C176.765 30.4091 176.934 30.3665 177.107 30.2812C177.281 30.196 177.427 30.0653 177.544 29.8892C177.663 29.7131 177.723 29.4886 177.723 29.2159ZM180.906 31.1023C180.629 31.1023 180.378 31.0502 180.153 30.946C179.927 30.84 179.748 30.6875 179.616 30.4886C179.483 30.2879 179.417 30.0455 179.417 29.7614C179.417 29.5114 179.466 29.3087 179.565 29.1534C179.663 28.9962 179.795 28.8731 179.96 28.7841C180.124 28.6951 180.306 28.6288 180.505 28.5852C180.706 28.5398 180.907 28.5038 181.11 28.4773C181.375 28.4432 181.59 28.4176 181.755 28.4006C181.922 28.3816 182.043 28.3504 182.119 28.3068C182.196 28.2633 182.235 28.1875 182.235 28.0795L182.235 28.0568C182.235 27.7765 182.158 27.5587 182.005 27.4034C181.853 27.2481 181.623 27.1705 181.315 27.1705C180.995 27.1705 180.744 27.2405 180.562 27.3807C180.38 27.5208 180.252 27.6705 180.178 27.8295L179.542 27.6023C179.656 27.3371 179.807 27.1307 179.996 26.983C180.188 26.8333 180.396 26.7292 180.621 26.6705C180.849 26.6098 181.072 26.5795 181.292 26.5795C181.432 26.5795 181.593 26.5966 181.775 26.6307C181.959 26.6629 182.136 26.7301 182.306 26.8324C182.478 26.9347 182.621 27.089 182.735 27.2955C182.849 27.5019 182.906 27.7784 182.906 28.125L182.906 31L182.235 31L182.235 30.4091L182.201 30.4091C182.156 30.5038 182.08 30.6051 181.974 30.7131C181.868 30.821 181.727 30.9129 181.55 30.9886C181.374 31.0644 181.159 31.1023 180.906 31.1023ZM181.008 30.5C181.273 30.5 181.496 30.4479 181.678 30.3437C181.862 30.2396 182 30.1051 182.093 29.9403C182.188 29.7756 182.235 29.6023 182.235 29.4205L182.235 28.8068C182.207 28.8409 182.144 28.8722 182.048 28.9006C181.953 28.9271 181.843 28.9508 181.718 28.9716C181.595 28.9905 181.475 29.0076 181.357 29.0227C181.242 29.036 181.148 29.0473 181.076 29.0568C180.902 29.0795 180.739 29.1165 180.587 29.1676C180.438 29.2169 180.317 29.2917 180.224 29.392C180.133 29.4905 180.087 29.625 180.087 29.7955C180.087 30.0284 180.174 30.2045 180.346 30.3239C180.52 30.4413 180.741 30.5 181.008 30.5ZM184.8 25.1818L184.8 31L184.129 31L184.129 25.1818L184.8 25.1818ZM56.8977 42.1023C56.6212 42.1023 56.3703 42.0502 56.1449 41.946C55.9195 41.84 55.7405 41.6875 55.608 41.4886C55.4754 41.2879 55.4091 41.0455 55.4091 40.7614C55.4091 40.5114 55.4583 40.3087 55.5568 40.1534C55.6553 39.9962 55.7869 39.8731 55.9517 39.7841C56.1165 39.6951 56.2983 39.6288 56.4972 39.5852C56.6979 39.5398 56.8996 39.5038 57.1023 39.4773C57.3674 39.4432 57.5824 39.4176 57.7472 39.4006C57.9138 39.3816 58.035 39.3504 58.1108 39.3068C58.1884 39.2633 58.2273 39.1875 58.2273 39.0795L58.2273 39.0568C58.2273 38.7765 58.1506 38.5587 57.9972 38.4034C57.8456 38.2481 57.6155 38.1705 57.3068 38.1705C56.9867 38.1705 56.7358 38.2405 56.554 38.3807C56.3722 38.5208 56.2443 38.6705 56.1705 38.8295L55.5341 38.6023C55.6477 38.3371 55.7992 38.1307 55.9886 37.983C56.1799 37.8333 56.3883 37.7292 56.6136 37.6705C56.8409 37.6098 57.0644 37.5795 57.2841 37.5795C57.4242 37.5795 57.5852 37.5966 57.767 37.6307C57.9508 37.6629 58.1278 37.7301 58.2983 37.8324C58.4706 37.9347 58.6136 38.089 58.7273 38.2955C58.8409 38.5019 58.8977 38.7784 58.8977 39.125L58.8977 42L58.2273 42L58.2273 41.4091L58.1932 41.4091C58.1477 41.5038 58.072 41.6051 57.9659 41.7131C57.8598 41.821 57.7187 41.9129 57.5426 41.9886C57.3665 42.0644 57.1515 42.1023 56.8977 42.1023ZM57 41.5C57.2652 41.5 57.4886 41.4479 57.6705 41.3437C57.8542 41.2396 57.9924 41.1051 58.0852 40.9403C58.1799 40.7756 58.2273 40.6023 58.2273 40.4205L58.2273 39.8068C58.1989 39.8409 58.1364 39.8722 58.0398 39.9006C57.9451 39.9271 57.8352 39.9508 57.7102 39.9716C57.5871 39.9905 57.4669 40.0076 57.3494 40.0227C57.2339 40.036 57.1402 40.0473 57.0682 40.0568C56.8939 40.0795 56.7311 40.1165 56.5795 40.1676C56.4299 40.2169 56.3087 40.2917 56.2159 40.392C56.125 40.4905 56.0795 40.625 56.0795 40.7955C56.0795 41.0284 56.1657 41.2045 56.3381 41.3239C56.5123 41.4413 56.733 41.5 57 41.5ZM61.7692 42.0909C61.4055 42.0909 61.0845 41.9991 60.8061 41.8153C60.5277 41.6297 60.3099 41.3684 60.1527 41.0312C59.9955 40.6922 59.9169 40.2917 59.9169 39.8295C59.9169 39.3712 59.9955 38.9735 60.1527 38.6364C60.3099 38.2992 60.5286 38.0388 60.8089 37.8551C61.0893 37.6714 61.4131 37.5795 61.7805 37.5795C62.0646 37.5795 62.2891 37.6269 62.4538 37.7216C62.6205 37.8144 62.7474 37.9205 62.8345 38.0398C62.9235 38.1572 62.9927 38.2538 63.0419 38.3295L63.0987 38.3295L63.0987 36.1818L63.7692 36.1818L63.7692 42L63.1214 42L63.1214 41.3295L63.0419 41.3295C62.9927 41.4091 62.9226 41.5095 62.8317 41.6307C62.7408 41.75 62.611 41.857 62.4425 41.9517C62.2739 42.0445 62.0495 42.0909 61.7692 42.0909ZM61.8601 41.4886C62.129 41.4886 62.3563 41.4186 62.5419 41.2784C62.7275 41.1364 62.8686 40.9403 62.9652 40.6903C63.0618 40.4384 63.1101 40.1477 63.1101 39.8182C63.1101 39.4924 63.0627 39.2074 62.968 38.9631C62.8733 38.7169 62.7332 38.5256 62.5476 38.3892C62.362 38.2509 62.1328 38.1818 61.8601 38.1818C61.576 38.1818 61.3393 38.2547 61.1499 38.4006C60.9624 38.5445 60.8213 38.7405 60.7266 38.9886C60.6338 39.2348 60.5874 39.5114 60.5874 39.8182C60.5874 40.1288 60.6347 40.411 60.7294 40.6648C60.826 40.9167 60.968 41.1174 61.1555 41.267C61.3449 41.4148 61.5798 41.4886 61.8601 41.4886ZM67.8402 40.2159L67.8402 37.6364L68.5107 37.6364L68.5107 42L67.8402 42L67.8402 41.2614L67.7947 41.2614C67.6925 41.483 67.5334 41.6714 67.3175 41.8267C67.1016 41.9801 66.8288 42.0568 66.4993 42.0568C66.2266 42.0568 65.9841 41.9972 65.772 41.8778C65.5599 41.7566 65.3932 41.5748 65.272 41.3324C65.1508 41.0881 65.0902 40.7803 65.0902 40.4091L65.0902 37.6364L65.7607 37.6364L65.7607 40.3636C65.7607 40.6818 65.8497 40.9356 66.0277 41.125C66.2076 41.3144 66.4368 41.4091 66.7152 41.4091C66.8819 41.4091 67.0514 41.3665 67.2237 41.2812C67.398 41.196 67.5438 41.0653 67.6612 40.8892C67.7805 40.7131 67.8402 40.4886 67.8402 40.2159ZM70.4091 36.1818L70.4091 42L69.7386 42L69.7386 36.1818L70.4091 36.1818ZM73.5348 37.6364L73.5348 38.2045L71.2734 38.2045L71.2734 37.6364L73.5348 37.6364ZM71.9325 36.5909L72.603 36.5909L72.603 40.75C72.603 40.9394 72.6304 41.0814 72.6854 41.1761C72.7422 41.2689 72.8142 41.3314 72.9013 41.3636C72.9903 41.3939 73.084 41.4091 73.1825 41.4091C73.2564 41.4091 73.317 41.4053 73.3643 41.3977C73.4117 41.3883 73.4496 41.3807 73.478 41.375L73.6143 41.9773C73.5689 41.9943 73.5054 42.0114 73.424 42.0284C73.3426 42.0473 73.2393 42.0568 73.1143 42.0568C72.925 42.0568 72.7393 42.0161 72.5575 41.9347C72.3776 41.8532 72.228 41.7292 72.1087 41.5625C71.9912 41.3958 71.9325 41.1856 71.9325 40.9318L71.9325 36.5909ZM76.2692 42.0909C75.8752 42.0909 75.5296 41.9972 75.2322 41.8097C74.9368 41.6222 74.7057 41.3598 74.5391 41.0227C74.3743 40.6856 74.2919 40.2917 74.2919 39.8409C74.2919 39.3864 74.3743 38.9896 74.5391 38.6506C74.7057 38.3116 74.9368 38.0483 75.2322 37.8608C75.5296 37.6733 75.8752 37.5795 76.2692 37.5795C76.6631 37.5795 77.0078 37.6733 77.3033 37.8608C77.6006 38.0483 77.8317 38.3116 77.9964 38.6506C78.1631 38.9896 78.2464 39.3864 78.2464 39.8409C78.2464 40.2917 78.1631 40.6856 77.9964 41.0227C77.8317 41.3598 77.6006 41.6222 77.3033 41.8097C77.0078 41.9972 76.6631 42.0909 76.2692 42.0909ZM76.2692 41.4886C76.5684 41.4886 76.8146 41.4119 77.0078 41.2585C77.201 41.1051 77.344 40.9034 77.4368 40.6534C77.5296 40.4034 77.576 40.1326 77.576 39.8409C77.576 39.5492 77.5296 39.2775 77.4368 39.0256C77.344 38.7737 77.201 38.5701 77.0078 38.4148C76.8146 38.2595 76.5684 38.1818 76.2692 38.1818C75.9699 38.1818 75.7237 38.2595 75.5305 38.4148C75.3374 38.5701 75.1944 38.7737 75.1016 39.0256C75.0088 39.2775 74.9624 39.5492 74.9624 39.8409C74.9624 40.1326 75.0088 40.4034 75.1016 40.6534C75.1944 40.9034 75.3374 41.1051 75.5305 41.2585C75.7237 41.4119 75.9699 41.4886 76.2692 41.4886ZM83.3494 42.0909C82.929 42.0909 82.5663 41.9981 82.2614 41.8125C81.9583 41.625 81.7244 41.3636 81.5597 41.0284C81.3968 40.6913 81.3153 40.2992 81.3153 39.8523C81.3153 39.4053 81.3968 39.0114 81.5597 38.6705C81.7244 38.3277 81.9536 38.0606 82.2472 37.8693C82.5426 37.6761 82.8873 37.5795 83.2812 37.5795C83.5085 37.5795 83.733 37.6174 83.9545 37.6932C84.1761 37.7689 84.3778 37.892 84.5597 38.0625C84.7415 38.2311 84.8864 38.4545 84.9943 38.733C85.1023 39.0114 85.1562 39.3542 85.1562 39.7614L85.1562 40.0455L81.7926 40.0455L81.7926 39.4659L84.4744 39.4659C84.4744 39.2197 84.4252 39 84.3267 38.8068C84.2301 38.6136 84.0919 38.4612 83.9119 38.3494C83.7339 38.2377 83.5237 38.1818 83.2812 38.1818C83.0142 38.1818 82.7831 38.2481 82.5881 38.3807C82.3949 38.5114 82.2462 38.6818 82.142 38.892C82.0379 39.1023 81.9858 39.3277 81.9858 39.5682L81.9858 39.9545C81.9858 40.2841 82.0426 40.5634 82.1562 40.7926C82.2718 41.0199 82.4318 41.1932 82.6364 41.3125C82.8409 41.4299 83.0786 41.4886 83.3494 41.4886C83.5256 41.4886 83.6847 41.464 83.8267 41.4148C83.9706 41.3636 84.0947 41.2879 84.1989 41.1875C84.303 41.0852 84.3835 40.9583 84.4403 40.8068L85.0881 40.9886C85.0199 41.2083 84.9053 41.4015 84.7443 41.5682C84.5833 41.733 84.3845 41.8617 84.1477 41.9545C83.911 42.0455 83.6449 42.0909 83.3494 42.0909ZM88.4261 43.6364L88.4261 37.6364L89.0739 37.6364L89.0739 38.3295L89.1534 38.3295C89.2026 38.2538 89.2708 38.1572 89.358 38.0398C89.447 37.9205 89.5739 37.8144 89.7386 37.7216C89.9053 37.6269 90.1307 37.5795 90.4148 37.5795C90.7822 37.5795 91.1061 37.6714 91.3864 37.8551C91.6667 38.0388 91.8854 38.2992 92.0426 38.6364C92.1998 38.9735 92.2784 39.3712 92.2784 39.8295C92.2784 40.2917 92.1998 40.6922 92.0426 41.0312C91.8854 41.3684 91.6676 41.6297 91.3892 41.8153C91.1108 41.9991 90.7898 42.0909 90.4261 42.0909C90.1458 42.0909 89.9214 42.0445 89.7528 41.9517C89.5843 41.857 89.4545 41.75 89.3636 41.6307C89.2727 41.5095 89.2026 41.4091 89.1534 41.3295L89.0966 41.3295L89.0966 43.6364L88.4261 43.6364ZM89.0852 39.8182C89.0852 40.1477 89.1335 40.4384 89.2301 40.6903C89.3267 40.9403 89.4678 41.1364 89.6534 41.2784C89.839 41.4186 90.0663 41.4886 90.3352 41.4886C90.6155 41.4886 90.8494 41.4148 91.0369 41.267C91.2263 41.1174 91.3684 40.9167 91.4631 40.6648C91.5597 40.411 91.608 40.1288 91.608 39.8182C91.608 39.5114 91.5606 39.2348 91.4659 38.9886C91.3731 38.7405 91.232 38.5445 91.0426 38.4006C90.8551 38.2547 90.6193 38.1818 90.3352 38.1818C90.0625 38.1818 89.8333 38.2509 89.6477 38.3892C89.4621 38.5256 89.322 38.7169 89.2273 38.9631C89.1326 39.2074 89.0852 39.4924 89.0852 39.8182ZM93.3011 42L93.3011 37.6364L93.9489 37.6364L93.9489 38.2955L93.9943 38.2955C94.0739 38.0795 94.2178 37.9044 94.4261 37.7699C94.6345 37.6354 94.8693 37.5682 95.1307 37.5682C95.1799 37.5682 95.2415 37.5691 95.3153 37.571C95.3892 37.5729 95.4451 37.5758 95.483 37.5795L95.483 38.2614C95.4602 38.2557 95.4081 38.2472 95.3267 38.2358C95.2472 38.2225 95.1629 38.2159 95.0739 38.2159C94.8617 38.2159 94.6723 38.2604 94.5057 38.3494C94.3409 38.4366 94.2102 38.5578 94.1136 38.7131C94.0189 38.8665 93.9716 39.0417 93.9716 39.2386L93.9716 42L93.3011 42ZM97.9744 42.0909C97.554 42.0909 97.1913 41.9981 96.8864 41.8125C96.5833 41.625 96.3494 41.3636 96.1847 41.0284C96.0218 40.6913 95.9403 40.2992 95.9403 39.8523C95.9403 39.4053 96.0218 39.0114 96.1847 38.6705C96.3494 38.3277 96.5786 38.0606 96.8722 37.8693C97.1676 37.6761 97.5123 37.5795 97.9062 37.5795C98.1335 37.5795 98.358 37.6174 98.5795 37.6932C98.8011 37.7689 99.0028 37.892 99.1847 38.0625C99.3665 38.2311 99.5114 38.4545 99.6193 38.733C99.7273 39.0114 99.7812 39.3542 99.7812 39.7614L99.7812 40.0455L96.4176 40.0455L96.4176 39.4659L99.0994 39.4659C99.0994 39.2197 99.0502 39 98.9517 38.8068C98.8551 38.6136 98.7169 38.4612 98.5369 38.3494C98.3589 38.2377 98.1487 38.1818 97.9062 38.1818C97.6392 38.1818 97.4081 38.2481 97.2131 38.3807C97.0199 38.5114 96.8712 38.6818 96.767 38.892C96.6629 39.1023 96.6108 39.3277 96.6108 39.5682L96.6108 39.9545C96.6108 40.2841 96.6676 40.5634 96.7812 40.7926C96.8968 41.0199 97.0568 41.1932 97.2614 41.3125C97.4659 41.4299 97.7036 41.4886 97.9744 41.4886C98.1506 41.4886 98.3097 41.464 98.4517 41.4148C98.5956 41.3636 98.7197 41.2879 98.8239 41.1875C98.928 41.0852 99.0085 40.9583 99.0653 40.8068L99.7131 40.9886C99.6449 41.2083 99.5303 41.4015 99.3693 41.5682C99.2083 41.733 99.0095 41.8617 98.7727 41.9545C98.536 42.0455 98.2699 42.0909 97.9744 42.0909ZM102.574 42.0909C102.165 42.0909 101.812 41.9943 101.517 41.8011C101.222 41.608 100.994 41.3419 100.835 41.0028C100.676 40.6638 100.597 40.2765 100.597 39.8409C100.597 39.3977 100.678 39.0066 100.841 38.6676C101.006 38.3267 101.235 38.0606 101.528 37.8693C101.824 37.6761 102.169 37.5795 102.562 37.5795C102.869 37.5795 103.146 37.6364 103.392 37.75C103.638 37.8636 103.84 38.0227 103.997 38.2273C104.154 38.4318 104.252 38.6705 104.29 38.9432L103.619 38.9432C103.568 38.7443 103.455 38.5682 103.278 38.4148C103.104 38.2595 102.869 38.1818 102.574 38.1818C102.312 38.1818 102.083 38.25 101.886 38.3864C101.691 38.5208 101.539 38.7112 101.429 38.9574C101.321 39.2017 101.267 39.4886 101.267 39.8182C101.267 40.1553 101.32 40.4489 101.426 40.6989C101.534 40.9489 101.686 41.143 101.881 41.2812C102.078 41.4195 102.309 41.4886 102.574 41.4886C102.748 41.4886 102.906 41.4583 103.048 41.3977C103.19 41.3371 103.311 41.25 103.409 41.1364C103.508 41.0227 103.578 40.8864 103.619 40.7273L104.29 40.7273C104.252 40.9848 104.158 41.2169 104.009 41.4233C103.861 41.6278 103.665 41.7907 103.42 41.9119C103.178 42.0312 102.896 42.0909 102.574 42.0909ZM105.27 42L105.27 37.6364L105.94 37.6364L105.94 42L105.27 42ZM105.611 36.9091C105.48 36.9091 105.367 36.8646 105.273 36.7756C105.18 36.6866 105.134 36.5795 105.134 36.4545C105.134 36.3295 105.18 36.2225 105.273 36.1335C105.367 36.0445 105.48 36 105.611 36C105.741 36 105.853 36.0445 105.946 36.1335C106.041 36.2225 106.088 36.3295 106.088 36.4545C106.088 36.5795 106.041 36.6866 105.946 36.7756C105.853 36.8646 105.741 36.9091 105.611 36.9091ZM110.259 38.6136L109.657 38.7841C109.619 38.6837 109.563 38.5862 109.489 38.4915C109.417 38.3949 109.319 38.3153 109.194 38.2528C109.069 38.1903 108.909 38.1591 108.714 38.1591C108.447 38.1591 108.224 38.2206 108.046 38.3437C107.87 38.465 107.782 38.6193 107.782 38.8068C107.782 38.9735 107.843 39.1051 107.964 39.2017C108.085 39.2983 108.274 39.3788 108.532 39.4432L109.18 39.6023C109.57 39.697 109.861 39.8419 110.052 40.0369C110.243 40.2301 110.339 40.4792 110.339 40.7841C110.339 41.0341 110.267 41.2576 110.123 41.4545C109.981 41.6515 109.782 41.8068 109.526 41.9205C109.271 42.0341 108.973 42.0909 108.634 42.0909C108.189 42.0909 107.821 41.9943 107.529 41.8011C107.237 41.608 107.053 41.3258 106.975 40.9545L107.612 40.7955C107.672 41.0303 107.787 41.2064 107.955 41.3239C108.126 41.4413 108.348 41.5 108.623 41.5C108.935 41.5 109.183 41.4337 109.367 41.3011C109.553 41.1667 109.646 41.0057 109.646 40.8182C109.646 40.6667 109.593 40.5398 109.487 40.4375C109.38 40.3333 109.218 40.2557 108.998 40.2045L108.271 40.0341C107.871 39.9394 107.577 39.7926 107.39 39.5937C107.204 39.393 107.112 39.142 107.112 38.8409C107.112 38.5947 107.181 38.3769 107.319 38.1875C107.459 37.9981 107.649 37.8494 107.89 37.7415C108.132 37.6335 108.407 37.5795 108.714 37.5795C109.146 37.5795 109.485 37.6742 109.731 37.8636C109.979 38.053 110.155 38.303 110.259 38.6136ZM112.632 42.1023C112.356 42.1023 112.105 42.0502 111.879 41.946C111.654 41.84 111.475 41.6875 111.342 41.4886C111.21 41.2879 111.143 41.0455 111.143 40.7614C111.143 40.5114 111.193 40.3087 111.291 40.1534C111.39 39.9962 111.521 39.8731 111.686 39.7841C111.851 39.6951 112.033 39.6288 112.232 39.5852C112.432 39.5398 112.634 39.5038 112.837 39.4773C113.102 39.4432 113.317 39.4176 113.482 39.4006C113.648 39.3816 113.769 39.3504 113.845 39.3068C113.923 39.2633 113.962 39.1875 113.962 39.0795L113.962 39.0568C113.962 38.7765 113.885 38.5587 113.732 38.4034C113.58 38.2481 113.35 38.1705 113.041 38.1705C112.721 38.1705 112.47 38.2405 112.288 38.3807C112.107 38.5208 111.979 38.6705 111.905 38.8295L111.268 38.6023C111.382 38.3371 111.534 38.1307 111.723 37.983C111.914 37.8333 112.123 37.7292 112.348 37.6705C112.575 37.6098 112.799 37.5795 113.018 37.5795C113.159 37.5795 113.32 37.5966 113.501 37.6307C113.685 37.6629 113.862 37.7301 114.033 37.8324C114.205 37.9347 114.348 38.089 114.462 38.2955C114.575 38.5019 114.632 38.7784 114.632 39.125L114.632 42L113.962 42L113.962 41.4091L113.928 41.4091C113.882 41.5038 113.806 41.6051 113.7 41.7131C113.594 41.821 113.453 41.9129 113.277 41.9886C113.101 42.0644 112.886 42.1023 112.632 42.1023ZM112.734 41.5C113 41.5 113.223 41.4479 113.405 41.3437C113.589 41.2396 113.727 41.1051 113.82 40.9403C113.914 40.7756 113.962 40.6023 113.962 40.4205L113.962 39.8068C113.933 39.8409 113.871 39.8722 113.774 39.9006C113.679 39.9271 113.57 39.9508 113.445 39.9716C113.321 39.9905 113.201 40.0076 113.084 40.0227C112.968 40.036 112.875 40.0473 112.803 40.0568C112.628 40.0795 112.465 40.1165 112.314 40.1676C112.164 40.2169 112.043 40.2917 111.95 40.392C111.859 40.4905 111.814 40.625 111.814 40.7955C111.814 41.0284 111.9 41.2045 112.072 41.3239C112.247 41.4413 112.467 41.5 112.734 41.5ZM118.106 43.6364L118.106 37.6364L118.754 37.6364L118.754 38.3295L118.833 38.3295C118.882 38.2538 118.951 38.1572 119.038 38.0398C119.127 37.9205 119.254 37.8144 119.418 37.7216C119.585 37.6269 119.81 37.5795 120.094 37.5795C120.462 37.5795 120.786 37.6714 121.066 37.8551C121.346 38.0388 121.565 38.2992 121.722 38.6364C121.879 38.9735 121.958 39.3712 121.958 39.8295C121.958 40.2917 121.879 40.6922 121.722 41.0312C121.565 41.3684 121.347 41.6297 121.069 41.8153C120.79 41.9991 120.469 42.0909 120.106 42.0909C119.826 42.0909 119.601 42.0445 119.433 41.9517C119.264 41.857 119.134 41.75 119.043 41.6307C118.952 41.5095 118.882 41.4091 118.833 41.3295L118.776 41.3295L118.776 43.6364L118.106 43.6364ZM118.765 39.8182C118.765 40.1477 118.813 40.4384 118.91 40.6903C119.006 40.9403 119.147 41.1364 119.333 41.2784C119.519 41.4186 119.746 41.4886 120.015 41.4886C120.295 41.4886 120.529 41.4148 120.717 41.267C120.906 41.1174 121.048 40.9167 121.143 40.6648C121.239 40.411 121.288 40.1288 121.288 39.8182C121.288 39.5114 121.24 39.2348 121.146 38.9886C121.053 38.7405 120.912 38.5445 120.722 38.4006C120.535 38.2547 120.299 38.1818 120.015 38.1818C119.742 38.1818 119.513 38.2509 119.327 38.3892C119.142 38.5256 119.002 38.7169 118.907 38.9631C118.812 39.2074 118.765 39.4924 118.765 39.8182ZM124.265 42.1023C123.988 42.1023 123.737 42.0502 123.512 41.946C123.287 41.84 123.108 41.6875 122.975 41.4886C122.843 41.2879 122.776 41.0455 122.776 40.7614C122.776 40.5114 122.826 40.3087 122.924 40.1534C123.022 39.9962 123.154 39.8731 123.319 39.7841C123.484 39.6951 123.665 39.6288 123.864 39.5852C124.065 39.5398 124.267 39.5038 124.469 39.4773C124.735 39.4432 124.95 39.4176 125.114 39.4006C125.281 39.3816 125.402 39.3504 125.478 39.3068C125.556 39.2633 125.594 39.1875 125.594 39.0795L125.594 39.0568C125.594 38.7765 125.518 38.5587 125.364 38.4034C125.213 38.2481 124.983 38.1705 124.674 38.1705C124.354 38.1705 124.103 38.2405 123.921 38.3807C123.739 38.5208 123.612 38.6705 123.538 38.8295L122.901 38.6023C123.015 38.3371 123.166 38.1307 123.356 37.983C123.547 37.8333 123.755 37.7292 123.981 37.6705C124.208 37.6098 124.432 37.5795 124.651 37.5795C124.791 37.5795 124.952 37.5966 125.134 37.6307C125.318 37.6629 125.495 37.7301 125.665 37.8324C125.838 37.9347 125.981 38.089 126.094 38.2955C126.208 38.5019 126.265 38.7784 126.265 39.125L126.265 42L125.594 42L125.594 41.4091L125.56 41.4091C125.515 41.5038 125.439 41.6051 125.333 41.7131C125.227 41.821 125.086 41.9129 124.91 41.9886C124.734 42.0644 124.519 42.1023 124.265 42.1023ZM124.367 41.5C124.632 41.5 124.856 41.4479 125.038 41.3437C125.221 41.2396 125.36 41.1051 125.452 40.9403C125.547 40.7756 125.594 40.6023 125.594 40.4205L125.594 39.8068C125.566 39.8409 125.504 39.8722 125.407 39.9006C125.312 39.9271 125.202 39.9508 125.077 39.9716C124.954 39.9905 124.834 40.0076 124.717 40.0227C124.601 40.036 124.507 40.0473 124.435 40.0568C124.261 40.0795 124.098 40.1165 123.947 40.1676C123.797 40.2169 123.676 40.2917 123.583 40.392C123.492 40.4905 123.447 40.625 123.447 40.7955C123.447 41.0284 123.533 41.2045 123.705 41.3239C123.879 41.4413 124.1 41.5 124.367 41.5ZM129.25 43.7273C128.926 43.7273 128.648 43.6856 128.415 43.6023C128.182 43.5208 127.988 43.4129 127.832 43.2784C127.679 43.1458 127.557 43.0038 127.466 42.8523L128 42.4773C128.061 42.5568 128.137 42.6477 128.23 42.75C128.323 42.8542 128.45 42.9441 128.611 43.0199C128.774 43.0975 128.987 43.1364 129.25 43.1364C129.602 43.1364 129.893 43.0511 130.122 42.8807C130.351 42.7102 130.466 42.4432 130.466 42.0795L130.466 41.1932L130.409 41.1932C130.36 41.2727 130.29 41.3712 130.199 41.4886C130.11 41.6042 129.981 41.7074 129.812 41.7983C129.646 41.8873 129.42 41.9318 129.136 41.9318C128.784 41.9318 128.468 41.8485 128.187 41.6818C127.909 41.5152 127.688 41.2727 127.526 40.9545C127.365 40.6364 127.284 40.25 127.284 39.7955C127.284 39.3485 127.363 38.9593 127.52 38.6278C127.677 38.2945 127.896 38.0369 128.176 37.8551C128.456 37.6714 128.78 37.5795 129.148 37.5795C129.432 37.5795 129.657 37.6269 129.824 37.7216C129.992 37.8144 130.121 37.9205 130.21 38.0398C130.301 38.1572 130.371 38.2538 130.42 38.3295L130.489 38.3295L130.489 37.6364L131.136 37.6364L131.136 42.125C131.136 42.5 131.051 42.8049 130.881 43.0398C130.712 43.2765 130.485 43.4498 130.199 43.5597C129.915 43.6714 129.598 43.7273 129.25 43.7273ZM129.227 41.3295C129.496 41.3295 129.723 41.268 129.909 41.1449C130.095 41.0218 130.236 40.8447 130.332 40.6136C130.429 40.3826 130.477 40.1061 130.477 39.7841C130.477 39.4697 130.43 39.1922 130.335 38.9517C130.241 38.7112 130.1 38.5227 129.915 38.3864C129.729 38.25 129.5 38.1818 129.227 38.1818C128.943 38.1818 128.706 38.2538 128.517 38.3977C128.33 38.5417 128.188 38.7348 128.094 38.9773C128.001 39.2197 127.955 39.4886 127.955 39.7841C127.955 40.0871 128.002 40.3551 128.097 40.5881C128.193 40.8191 128.335 41.0009 128.523 41.1335C128.712 41.2642 128.947 41.3295 129.227 41.3295ZM133.648 42.1023C133.371 42.1023 133.12 42.0502 132.895 41.946C132.67 41.84 132.491 41.6875 132.358 41.4886C132.225 41.2879 132.159 41.0455 132.159 40.7614C132.159 40.5114 132.208 40.3087 132.307 40.1534C132.405 39.9962 132.537 39.8731 132.702 39.7841C132.866 39.6951 133.048 39.6288 133.247 39.5852C133.448 39.5398 133.65 39.5038 133.852 39.4773C134.117 39.4432 134.332 39.4176 134.497 39.4006C134.664 39.3816 134.785 39.3504 134.861 39.3068C134.938 39.2633 134.977 39.1875 134.977 39.0795L134.977 39.0568C134.977 38.7765 134.901 38.5587 134.747 38.4034C134.596 38.2481 134.366 38.1705 134.057 38.1705C133.737 38.1705 133.486 38.2405 133.304 38.3807C133.122 38.5208 132.994 38.6705 132.92 38.8295L132.284 38.6023C132.398 38.3371 132.549 38.1307 132.739 37.983C132.93 37.8333 133.138 37.7292 133.364 37.6705C133.591 37.6098 133.814 37.5795 134.034 37.5795C134.174 37.5795 134.335 37.5966 134.517 37.6307C134.701 37.6629 134.878 37.7301 135.048 37.8324C135.221 37.9347 135.364 38.089 135.477 38.2955C135.591 38.5019 135.648 38.7784 135.648 39.125L135.648 42L134.977 42L134.977 41.4091L134.943 41.4091C134.898 41.5038 134.822 41.6051 134.716 41.7131C134.61 41.821 134.469 41.9129 134.293 41.9886C134.116 42.0644 133.902 42.1023 133.648 42.1023ZM133.75 41.5C134.015 41.5 134.239 41.4479 134.42 41.3437C134.604 41.2396 134.742 41.1051 134.835 40.9403C134.93 40.7756 134.977 40.6023 134.977 40.4205L134.977 39.8068C134.949 39.8409 134.886 39.8722 134.79 39.9006C134.695 39.9271 134.585 39.9508 134.46 39.9716C134.337 39.9905 134.217 40.0076 134.099 40.0227C133.984 40.036 133.89 40.0473 133.818 40.0568C133.644 40.0795 133.481 40.1165 133.33 40.1676C133.18 40.2169 133.059 40.2917 132.966 40.392C132.875 40.4905 132.83 40.625 132.83 40.7955C132.83 41.0284 132.916 41.2045 133.088 41.3239C133.262 41.4413 133.483 41.5 133.75 41.5ZM136.871 42L136.871 37.6364L137.519 37.6364L137.519 38.2955L137.565 38.2955C137.644 38.0795 137.788 37.9044 137.996 37.7699C138.205 37.6354 138.44 37.5682 138.701 37.5682C138.75 37.5682 138.812 37.5691 138.886 37.571C138.96 37.5729 139.015 37.5758 139.053 37.5795L139.053 38.2614C139.031 38.2557 138.978 38.2472 138.897 38.2358C138.817 38.2225 138.733 38.2159 138.644 38.2159C138.432 38.2159 138.243 38.2604 138.076 38.3494C137.911 38.4366 137.781 38.5578 137.684 38.7131C137.589 38.8665 137.542 39.0417 137.542 39.2386L137.542 42L136.871 42ZM143.382 42.1023C143.106 42.1023 142.855 42.0502 142.629 41.946C142.404 41.84 142.225 41.6875 142.092 41.4886C141.96 41.2879 141.893 41.0455 141.893 40.7614C141.893 40.5114 141.943 40.3087 142.041 40.1534C142.14 39.9962 142.271 39.8731 142.436 39.7841C142.601 39.6951 142.783 39.6288 142.982 39.5852C143.182 39.5398 143.384 39.5038 143.587 39.4773C143.852 39.4432 144.067 39.4176 144.232 39.4006C144.398 39.3816 144.519 39.3504 144.595 39.3068C144.673 39.2633 144.712 39.1875 144.712 39.0795L144.712 39.0568C144.712 38.7765 144.635 38.5587 144.482 38.4034C144.33 38.2481 144.1 38.1705 143.791 38.1705C143.471 38.1705 143.22 38.2405 143.038 38.3807C142.857 38.5208 142.729 38.6705 142.655 38.8295L142.018 38.6023C142.132 38.3371 142.284 38.1307 142.473 37.983C142.664 37.8333 142.873 37.7292 143.098 37.6705C143.325 37.6098 143.549 37.5795 143.768 37.5795C143.909 37.5795 144.07 37.5966 144.251 37.6307C144.435 37.6629 144.612 37.7301 144.783 37.8324C144.955 37.9347 145.098 38.089 145.212 38.2955C145.325 38.5019 145.382 38.7784 145.382 39.125L145.382 42L144.712 42L144.712 41.4091L144.678 41.4091C144.632 41.5038 144.556 41.6051 144.45 41.7131C144.344 41.821 144.203 41.9129 144.027 41.9886C143.851 42.0644 143.636 42.1023 143.382 42.1023ZM143.484 41.5C143.75 41.5 143.973 41.4479 144.155 41.3437C144.339 41.2396 144.477 41.1051 144.57 40.9403C144.664 40.7756 144.712 40.6023 144.712 40.4205L144.712 39.8068C144.683 39.8409 144.621 39.8722 144.524 39.9006C144.429 39.9271 144.32 39.9508 144.195 39.9716C144.071 39.9905 143.951 40.0076 143.834 40.0227C143.718 40.036 143.625 40.0473 143.553 40.0568C143.378 40.0795 143.215 40.1165 143.064 40.1676C142.914 40.2169 142.793 40.2917 142.7 40.392C142.609 40.4905 142.564 40.625 142.564 40.7955C142.564 41.0284 142.65 41.2045 142.822 41.3239C142.997 41.4413 143.217 41.5 143.484 41.5ZM148.504 37.6364L148.504 38.2045L146.242 38.2045L146.242 37.6364L148.504 37.6364ZM146.901 36.5909L147.572 36.5909L147.572 40.75C147.572 40.9394 147.599 41.0814 147.654 41.1761C147.711 41.2689 147.783 41.3314 147.87 41.3636C147.959 41.3939 148.053 41.4091 148.151 41.4091C148.225 41.4091 148.286 41.4053 148.333 41.3977C148.38 41.3883 148.418 41.3807 148.447 41.375L148.583 41.9773C148.538 41.9943 148.474 42.0114 148.393 42.0284C148.311 42.0473 148.208 42.0568 148.083 42.0568C147.894 42.0568 147.708 42.0161 147.526 41.9347C147.346 41.8532 147.197 41.7292 147.077 41.5625C146.96 41.3958 146.901 41.1856 146.901 40.9318L146.901 36.5909ZM151.295 42.0909C150.874 42.0909 150.512 41.9981 150.207 41.8125C149.904 41.625 149.67 41.3636 149.505 41.0284C149.342 40.6913 149.261 40.2992 149.261 39.8523C149.261 39.4053 149.342 39.0114 149.505 38.6705C149.67 38.3277 149.899 38.0606 150.192 37.8693C150.488 37.6761 150.833 37.5795 151.227 37.5795C151.454 37.5795 151.678 37.6174 151.9 37.6932C152.121 37.7689 152.323 37.892 152.505 38.0625C152.687 38.2311 152.832 38.4545 152.94 38.733C153.048 39.0114 153.102 39.3542 153.102 39.7614L153.102 40.0455L149.738 40.0455L149.738 39.4659L152.42 39.4659C152.42 39.2197 152.37 39 152.272 38.8068C152.175 38.6136 152.037 38.4612 151.857 38.3494C151.679 38.2377 151.469 38.1818 151.227 38.1818C150.96 38.1818 150.728 38.2481 150.533 38.3807C150.34 38.5114 150.192 38.6818 150.087 38.892C149.983 39.1023 149.931 39.3277 149.931 39.5682L149.931 39.9545C149.931 40.2841 149.988 40.5634 150.102 40.7926C150.217 41.0199 150.377 41.1932 150.582 41.3125C150.786 41.4299 151.024 41.4886 151.295 41.4886C151.471 41.4886 151.63 41.464 151.772 41.4148C151.916 41.3636 152.04 41.2879 152.144 41.1875C152.248 41.0852 152.329 40.9583 152.386 40.8068L153.033 40.9886C152.965 41.2083 152.851 41.4015 152.69 41.5682C152.529 41.733 152.33 41.8617 152.093 41.9545C151.856 42.0455 151.59 42.0909 151.295 42.0909ZM156.36 42L156.36 41.4886L158.281 39.3864C158.506 39.1402 158.692 38.9261 158.837 38.7443C158.983 38.5606 159.091 38.3883 159.161 38.2273C159.233 38.0644 159.269 37.8939 159.269 37.7159C159.269 37.5114 159.22 37.3343 159.121 37.1847C159.025 37.035 158.892 36.9195 158.724 36.8381C158.555 36.7566 158.366 36.7159 158.156 36.7159C157.932 36.7159 157.737 36.7623 157.57 36.8551C157.406 36.946 157.278 37.0739 157.187 37.2386C157.098 37.4034 157.053 37.5966 157.053 37.8182L156.383 37.8182C156.383 37.4773 156.461 37.178 156.619 36.9205C156.776 36.6629 156.99 36.4621 157.261 36.3182C157.533 36.1742 157.839 36.1023 158.178 36.1023C158.519 36.1023 158.821 36.1742 159.085 36.3182C159.348 36.4621 159.554 36.6562 159.704 36.9006C159.853 37.1449 159.928 37.4167 159.928 37.7159C159.928 37.9299 159.889 38.1392 159.812 38.3437C159.736 38.5464 159.603 38.7727 159.414 39.0227C159.227 39.2708 158.966 39.5739 158.633 39.9318L157.326 41.3295L157.326 41.375L160.031 41.375L160.031 42L156.36 42ZM163.022 42.0795C162.689 42.0795 162.388 42.0133 162.121 41.8807C161.854 41.7481 161.64 41.5663 161.479 41.3352C161.318 41.1042 161.23 40.8409 161.215 40.5455L161.897 40.5455C161.924 40.8087 162.043 41.0265 162.255 41.1989C162.469 41.3693 162.725 41.4545 163.022 41.4545C163.261 41.4545 163.473 41.3987 163.658 41.2869C163.846 41.1752 163.993 41.0218 164.099 40.8267C164.207 40.6297 164.261 40.4072 164.261 40.1591C164.261 39.9053 164.205 39.679 164.093 39.4801C163.983 39.2794 163.832 39.1212 163.638 39.0057C163.445 38.8902 163.225 38.8314 162.977 38.8295C162.799 38.8277 162.616 38.8551 162.428 38.9119C162.241 38.9669 162.086 39.0379 161.965 39.125L161.306 39.0455L161.658 36.1818L164.681 36.1818L164.681 36.8068L162.249 36.8068L162.045 38.5227L162.079 38.5227C162.198 38.428 162.348 38.3494 162.528 38.2869C162.708 38.2244 162.895 38.1932 163.09 38.1932C163.446 38.1932 163.763 38.2784 164.042 38.4489C164.322 38.6174 164.542 38.8485 164.701 39.142C164.862 39.4356 164.942 39.7708 164.942 40.1477C164.942 40.5189 164.859 40.8504 164.692 41.142C164.528 41.4318 164.3 41.661 164.011 41.8295C163.721 41.9962 163.391 42.0795 163.022 42.0795ZM168.582 38.7784L168.582 39.4034L166.037 39.4034L166.037 38.7784L168.582 38.7784ZM171.648 42.0795C171.22 42.0795 170.856 41.9631 170.555 41.7301C170.254 41.4953 170.023 41.1553 169.864 40.7102C169.705 40.2633 169.626 39.7235 169.626 39.0909C169.626 38.4621 169.705 37.9252 169.864 37.4801C170.025 37.0331 170.256 36.6922 170.558 36.4574C170.861 36.2206 171.224 36.1023 171.648 36.1023C172.073 36.1023 172.435 36.2206 172.736 36.4574C173.04 36.6922 173.271 37.0331 173.43 37.4801C173.591 37.9252 173.671 38.4621 173.671 39.0909C173.671 39.7235 173.592 40.2633 173.433 40.7102C173.273 41.1553 173.043 41.4953 172.742 41.7301C172.441 41.9631 172.076 42.0795 171.648 42.0795ZM171.648 41.4545C172.073 41.4545 172.402 41.25 172.637 40.8409C172.872 40.4318 172.989 39.8485 172.989 39.0909C172.989 38.5871 172.935 38.1581 172.827 37.804C172.721 37.4498 172.568 37.1799 172.367 36.9943C172.168 36.8087 171.929 36.7159 171.648 36.7159C171.228 36.7159 170.899 36.9233 170.663 37.3381C170.426 37.7509 170.308 38.3352 170.308 39.0909C170.308 39.5947 170.361 40.0227 170.467 40.375C170.573 40.7273 170.725 40.9953 170.924 41.179C171.125 41.3627 171.366 41.4545 171.648 41.4545ZM174.614 40.8068L174.614 40.2273L177.171 36.1818L177.592 36.1818L177.592 37.0795L177.308 37.0795L175.376 40.1364L175.376 40.1818L178.819 40.1818L178.819 40.8068L174.614 40.8068ZM177.353 42L177.353 40.6307L177.353 40.3608L177.353 36.1818L178.023 36.1818L178.023 42L177.353 42ZM182.395 38.7784L182.395 39.4034L179.849 39.4034L179.849 38.7784L182.395 38.7784ZM183.29 42L183.29 41.4886L185.21 39.3864C185.436 39.1402 185.621 38.9261 185.767 38.7443C185.913 38.5606 186.021 38.3883 186.091 38.2273C186.163 38.0644 186.199 37.8939 186.199 37.7159C186.199 37.5114 186.15 37.3343 186.051 37.1847C185.955 37.035 185.822 36.9195 185.653 36.8381C185.485 36.7566 185.295 36.7159 185.085 36.7159C184.862 36.7159 184.667 36.7623 184.5 36.8551C184.335 36.946 184.207 37.0739 184.116 37.2386C184.027 37.4034 183.983 37.5966 183.983 37.8182L183.312 37.8182C183.312 37.4773 183.391 37.178 183.548 36.9205C183.705 36.6629 183.919 36.4621 184.19 36.3182C184.463 36.1742 184.769 36.1023 185.108 36.1023C185.449 36.1023 185.751 36.1742 186.014 36.3182C186.277 36.4621 186.484 36.6562 186.634 36.9006C186.783 37.1449 186.858 37.4167 186.858 37.7159C186.858 37.9299 186.819 38.1392 186.741 38.3437C186.666 38.5464 186.533 38.7727 186.344 39.0227C186.156 39.2708 185.896 39.5739 185.562 39.9318L184.256 41.3295L184.256 41.375L186.96 41.375L186.96 42L183.29 42ZM190.031 42.0795C189.603 42.0795 189.239 41.9631 188.937 41.7301C188.636 41.4953 188.406 41.1553 188.247 40.7102C188.088 40.2633 188.009 39.7235 188.009 39.0909C188.009 38.4621 188.088 37.9252 188.247 37.4801C188.408 37.0331 188.639 36.6922 188.94 36.4574C189.243 36.2206 189.607 36.1023 190.031 36.1023C190.455 36.1023 190.818 36.2206 191.119 36.4574C191.422 36.6922 191.653 37.0331 191.812 37.4801C191.973 37.9252 192.054 38.4621 192.054 39.0909C192.054 39.7235 191.974 40.2633 191.815 40.7102C191.656 41.1553 191.426 41.4953 191.125 41.7301C190.824 41.9631 190.459 42.0795 190.031 42.0795ZM190.031 41.4545C190.455 41.4545 190.785 41.25 191.02 40.8409C191.255 40.4318 191.372 39.8485 191.372 39.0909C191.372 38.5871 191.318 38.1581 191.21 37.804C191.104 37.4498 190.951 37.1799 190.75 36.9943C190.551 36.8087 190.312 36.7159 190.031 36.7159C189.611 36.7159 189.282 36.9233 189.045 37.3381C188.809 37.7509 188.69 38.3352 188.69 39.0909C188.69 39.5947 188.743 40.0227 188.849 40.375C188.955 40.7273 189.108 40.9953 189.307 41.179C189.508 41.3627 189.749 41.4545 190.031 41.4545ZM193.134 42L193.134 41.4886L195.054 39.3864C195.279 39.1402 195.465 38.9261 195.611 38.7443C195.757 38.5606 195.865 38.3883 195.935 38.2273C196.007 38.0644 196.043 37.8939 196.043 37.7159C196.043 37.5114 195.993 37.3343 195.895 37.1847C195.798 37.035 195.666 36.9195 195.497 36.8381C195.329 36.7566 195.139 36.7159 194.929 36.7159C194.705 36.7159 194.51 36.7623 194.344 36.8551C194.179 36.946 194.051 37.0739 193.96 37.2386C193.871 37.4034 193.827 37.5966 193.827 37.8182L193.156 37.8182C193.156 37.4773 193.235 37.178 193.392 36.9205C193.549 36.6629 193.763 36.4621 194.034 36.3182C194.307 36.1742 194.613 36.1023 194.952 36.1023C195.293 36.1023 195.595 36.1742 195.858 36.3182C196.121 36.4621 196.328 36.6562 196.477 36.9006C196.627 37.1449 196.702 37.4167 196.702 37.7159C196.702 37.9299 196.663 38.1392 196.585 38.3437C196.509 38.5464 196.377 38.7727 196.187 39.0227C196 39.2708 195.74 39.5739 195.406 39.9318L194.099 41.3295L194.099 41.375L196.804 41.375L196.804 42L193.134 42ZM199.909 42.0795C199.67 42.0758 199.432 42.0303 199.193 41.9432C198.955 41.8561 198.737 41.7093 198.54 41.5028C198.343 41.2945 198.185 41.0133 198.065 40.6591C197.946 40.303 197.886 39.8561 197.886 39.3182C197.886 38.803 197.935 38.3466 198.031 37.9489C198.128 37.5492 198.268 37.2131 198.452 36.9403C198.635 36.6657 198.857 36.4574 199.116 36.3153C199.378 36.1733 199.672 36.1023 200 36.1023C200.326 36.1023 200.616 36.1676 200.869 36.2983C201.125 36.4271 201.333 36.607 201.494 36.8381C201.655 37.0691 201.759 37.3352 201.807 37.6364L201.114 37.6364C201.049 37.375 200.924 37.1581 200.739 36.9858C200.553 36.8134 200.307 36.7273 200 36.7273C199.549 36.7273 199.194 36.9233 198.935 37.3153C198.677 37.7074 198.547 38.2576 198.545 38.9659L198.591 38.9659C198.697 38.8049 198.823 38.6676 198.969 38.554C199.116 38.4384 199.279 38.3494 199.457 38.2869C199.635 38.2244 199.824 38.1932 200.023 38.1932C200.356 38.1932 200.661 38.2765 200.937 38.4432C201.214 38.608 201.436 38.8362 201.602 39.1278C201.769 39.4176 201.852 39.75 201.852 40.125C201.852 40.4848 201.772 40.8144 201.611 41.1136C201.45 41.411 201.223 41.6477 200.932 41.8239C200.642 41.9981 200.301 42.0833 199.909 42.0795ZM199.909 41.4545C200.148 41.4545 200.362 41.3949 200.551 41.2756C200.742 41.1562 200.893 40.9962 201.003 40.7955C201.115 40.5947 201.17 40.3712 201.17 40.125C201.17 39.8845 201.116 39.6657 201.009 39.4687C200.902 39.2699 200.756 39.1117 200.568 38.9943C200.383 38.8769 200.17 38.8182 199.932 38.8182C199.752 38.8182 199.584 38.8542 199.429 38.9261C199.274 38.9962 199.137 39.0928 199.02 39.2159C198.904 39.339 198.813 39.4801 198.747 39.6392C198.681 39.7964 198.648 39.9621 198.648 40.1364C198.648 40.3674 198.702 40.5833 198.81 40.7841C198.919 40.9848 199.069 41.1468 199.259 41.2699C199.45 41.393 199.667 41.4545 199.909 41.4545Z" fill="white"/>
</svg>
