<svg width="61" height="61" viewBox="0 0 61 61" fill="none" xmlns="http://www.w3.org/2000/svg">
<path d="M18.5337 57.6312L15.9383 56.9801L23.6777 46.1884C24.4929 45.0571 25.5306 44.8064 26.9478 45.1625C28.3649 45.5185 29.1426 46.2236 29.3066 47.6009L30.8526 60.7233L28.2361 60.0674L26.8634 48.1983C26.8236 47.8493 26.6386 47.6548 26.32 47.5728C26.0014 47.4909 25.7461 47.5775 25.5259 47.861L18.5314 57.6289L18.5337 57.6312Z" fill="white"/>
<path d="M5.524 46.7055L3.69221 44.7543L16.0369 39.8609C17.3346 39.3479 18.3418 39.7016 19.342 40.7675C20.3422 41.8333 20.6163 42.8476 20.0073 44.0937L14.2121 55.9675L12.3663 54.0022L17.6297 43.2762C17.7843 42.96 17.7351 42.6976 17.5102 42.4564C17.2854 42.2151 17.0254 42.1495 16.6857 42.269L5.52166 46.7055H5.524Z" fill="white"/>
<path d="M0.484886 30.4801L0 27.8495L13.031 30.4051C14.399 30.6768 15.0572 31.5178 15.3219 32.9537C15.5866 34.3896 15.2703 35.3922 14.0827 36.1136L2.78985 42.9699L2.30027 40.3183L12.525 34.1413C12.8272 33.9609 12.9279 33.7103 12.867 33.387C12.8061 33.0638 12.6234 32.867 12.2744 32.785L0.482541 30.4824L0.484886 30.4801Z" fill="white"/>
<path d="M5.0172 14.1056L6.03147 11.6297L15.612 20.8261C16.6169 21.7935 16.7153 22.857 16.1625 24.2086C15.6097 25.5602 14.7992 26.2301 13.4125 26.1973L0.205829 25.86L1.22713 23.3653L13.1689 23.6956C13.5202 23.7073 13.7404 23.5503 13.8646 23.2458C13.9887 22.9413 13.9419 22.6766 13.6912 22.4189L5.0172 14.1056Z" fill="white"/>
<path d="M17.6838 2.78258L19.8763 1.24828L22.9636 14.1621C23.2869 15.5207 22.7926 16.4671 21.5956 17.3057C20.3987 18.1443 19.3563 18.2708 18.2085 17.4907L7.28102 10.0652L9.48994 8.5192L19.3563 15.2537C19.6467 15.4528 19.9138 15.4411 20.1832 15.2537C20.4525 15.0663 20.5556 14.818 20.4853 14.4643L17.6838 2.78258Z" fill="white"/>
<path d="M34.4605 0.105412L37.1332 0L32.7481 12.5344C32.2843 13.8508 31.3591 14.3826 29.8974 14.4388C28.4357 14.495 27.4917 14.0406 26.9459 12.7639L21.7668 0.609042L24.4606 0.501285L29.1197 11.5014C29.2556 11.8246 29.4875 11.9605 29.8178 11.9464C30.148 11.9324 30.3682 11.7801 30.4994 11.4452L34.4581 0.103068L34.4605 0.105412Z" fill="white"/>
<path d="M50.0245 6.92221L52.3318 8.27847L41.8658 16.4512C40.7649 17.3086 39.6991 17.2547 38.4388 16.5145C37.1786 15.7743 36.6305 14.8795 36.8624 13.5091L39.076 0.48284L41.3997 1.84848L39.3711 13.6216C39.3102 13.9682 39.432 14.2072 39.7178 14.3735C40.0036 14.5398 40.2706 14.5304 40.5611 14.3196L50.0245 6.91752V6.92221Z" fill="white"/>
<path d="M59.428 21.0728L60.6343 23.4597L47.4113 24.6778C46.0222 24.8043 45.1532 24.1812 44.4949 22.8764C43.8367 21.5717 43.8578 20.5223 44.7924 19.4963L53.696 9.73538L54.9117 12.1411L46.8397 20.9486C46.6008 21.2086 46.575 21.4733 46.7226 21.7685C46.8702 22.0636 47.1021 22.1995 47.4605 22.1784L59.4233 21.0681L59.428 21.0728Z" fill="white"/>
<path d="M59.6929 38.0595L59.4165 40.7205L47.634 34.5974C46.3972 33.9509 46.0037 32.96 46.1536 31.5054C46.3035 30.0507 46.8915 29.1817 48.2314 28.8233L61 25.4268L60.7212 28.1088L49.1683 31.1564C48.8287 31.2454 48.6624 31.4562 48.6272 31.7841C48.5921 32.1121 48.7139 32.351 49.0254 32.529L59.6905 38.0619L59.6929 38.0595Z" fill="white"/>
<path d="M50.7291 52.4916L49.0589 54.5811L42.4579 43.0586C41.7669 41.8476 41.9707 40.7982 42.8843 39.6574C43.7978 38.5167 44.7606 38.0997 46.0817 38.5237L58.6582 42.5691L56.974 44.6749L45.6085 40.9926C45.2735 40.8825 45.0206 40.9692 44.8144 41.2269C44.6083 41.4845 44.5802 41.7516 44.7465 42.0701L50.7267 52.4893L50.7291 52.4916Z" fill="white"/>
<path d="M35.3846 59.7885L32.85 60.6435L33.527 47.3807C33.5996 45.9869 34.3398 45.2162 35.7242 44.7501C37.0899 44.2886 38.144 44.4549 39.0271 45.5254L47.42 55.7291L44.8644 56.5911L37.2937 47.3479C37.0711 47.0761 36.8111 47.0106 36.4996 47.116C36.188 47.2214 36.0194 47.4299 35.9866 47.7882L35.3846 59.7862V59.7885Z" fill="white"/>
</svg>
